<svg width="272" height="24" viewBox="0 0 272 24" fill="none" xmlns="http://www.w3.org/2000/svg">
<path d="M4.33203 3.72656V7.53516H8.57422C9.33203 7.53516 9.94531 7.39453 10.4141 7.11328C10.8906 6.82422 11.1289 6.31641 11.1289 5.58984C11.1289 4.78516 10.8164 4.25391 10.1914 3.99609C9.65234 3.81641 8.96484 3.72656 8.12891 3.72656H4.33203ZM4.33203 10.3945V15H8.57422C9.33203 15 9.92188 14.8984 10.3438 14.6953C11.1094 14.3203 11.4922 13.6016 11.4922 12.5391C11.4922 11.6406 11.1211 11.0234 10.3789 10.6875C9.96484 10.5 9.38281 10.4023 8.63281 10.3945H4.33203ZM9.27734 0.726562C11.3945 0.757813 12.8945 1.37109 13.7773 2.56641C14.3086 3.30078 14.5742 4.17969 14.5742 5.20312C14.5742 6.25781 14.3086 7.10547 13.7773 7.74609C13.4805 8.10547 13.043 8.43359 12.4648 8.73047C13.3477 9.05078 14.0117 9.55859 14.457 10.2539C14.9102 10.9492 15.1367 11.793 15.1367 12.7852C15.1367 13.8086 14.8789 14.7266 14.3633 15.5391C14.0352 16.0781 13.625 16.5312 13.1328 16.8984C12.5781 17.3203 11.9219 17.6094 11.1641 17.7656C10.4141 17.9219 9.59766 18 8.71484 18H0.886719V0.726562H9.27734ZM23.6328 15.6445C24.6094 15.6445 25.3594 15.2969 25.8828 14.6016C26.4062 13.9062 26.668 12.918 26.668 11.6367C26.668 10.3555 26.4062 9.37109 25.8828 8.68359C25.3594 7.98828 24.6094 7.64062 23.6328 7.64062C22.6562 7.64062 21.9023 7.98828 21.3711 8.68359C20.8477 9.37109 20.5859 10.3555 20.5859 11.6367C20.5859 12.918 20.8477 13.9062 21.3711 14.6016C21.9023 15.2969 22.6562 15.6445 23.6328 15.6445ZM30.1719 11.6367C30.1719 13.5117 29.6328 15.1172 28.5547 16.4531C27.4766 17.7812 25.8398 18.4453 23.6445 18.4453C21.4492 18.4453 19.8125 17.7812 18.7344 16.4531C17.6562 15.1172 17.1172 13.5117 17.1172 11.6367C17.1172 9.79297 17.6562 8.19531 18.7344 6.84375C19.8125 5.49219 21.4492 4.81641 23.6445 4.81641C25.8398 4.81641 27.4766 5.49219 28.5547 6.84375C29.6328 8.19531 30.1719 9.79297 30.1719 11.6367ZM38.3047 15.6445C39.2812 15.6445 40.0312 15.2969 40.5547 14.6016C41.0781 13.9062 41.3398 12.918 41.3398 11.6367C41.3398 10.3555 41.0781 9.37109 40.5547 8.68359C40.0312 7.98828 39.2812 7.64062 38.3047 7.64062C37.3281 7.64062 36.5742 7.98828 36.043 8.68359C35.5195 9.37109 35.2578 10.3555 35.2578 11.6367C35.2578 12.918 35.5195 13.9062 36.043 14.6016C36.5742 15.2969 37.3281 15.6445 38.3047 15.6445ZM44.8438 11.6367C44.8438 13.5117 44.3047 15.1172 43.2266 16.4531C42.1484 17.7812 40.5117 18.4453 38.3164 18.4453C36.1211 18.4453 34.4844 17.7812 33.4062 16.4531C32.3281 15.1172 31.7891 13.5117 31.7891 11.6367C31.7891 9.79297 32.3281 8.19531 33.4062 6.84375C34.4844 5.49219 36.1211 4.81641 38.3164 4.81641C40.5117 4.81641 42.1484 5.49219 43.2266 6.84375C44.3047 8.19531 44.8438 9.79297 44.8438 11.6367ZM47.2109 0.785156H50.4922V10.0898L54.6523 5.28516H58.7891L54.3242 10.1719L58.9648 18H54.9336L51.875 12.5391L50.4922 13.9805V18H47.2109V0.785156ZM76.9883 0.726562H81.0781L75.3008 11.5078V18H71.6914V11.5078L65.7148 0.726562H69.9688L73.5547 8.25L76.9883 0.726562ZM86.8203 15.6445C87.7969 15.6445 88.5469 15.2969 89.0703 14.6016C89.5938 13.9062 89.8555 12.918 89.8555 11.6367C89.8555 10.3555 89.5938 9.37109 89.0703 8.68359C88.5469 7.98828 87.7969 7.64062 86.8203 7.64062C85.8438 7.64062 85.0898 7.98828 84.5586 8.68359C84.0352 9.37109 83.7734 10.3555 83.7734 11.6367C83.7734 12.918 84.0352 13.9062 84.5586 14.6016C85.0898 15.2969 85.8438 15.6445 86.8203 15.6445ZM93.3594 11.6367C93.3594 13.5117 92.8203 15.1172 91.7422 16.4531C90.6641 17.7812 89.0273 18.4453 86.832 18.4453C84.6367 18.4453 83 17.7812 81.9219 16.4531C80.8438 15.1172 80.3047 13.5117 80.3047 11.6367C80.3047 9.79297 80.8438 8.19531 81.9219 6.84375C83 5.49219 84.6367 4.81641 86.832 4.81641C89.0273 4.81641 90.6641 5.49219 91.7422 6.84375C92.8203 8.19531 93.3594 9.79297 93.3594 11.6367ZM99.0898 5.22656V12.9258C99.0898 13.6523 99.1758 14.1992 99.3477 14.5664C99.6523 15.2148 100.25 15.5391 101.141 15.5391C102.281 15.5391 103.062 15.0781 103.484 14.1562C103.703 13.6562 103.812 12.9961 103.812 12.1758V5.22656H107.199V18H103.953V16.1953C103.922 16.2344 103.844 16.3516 103.719 16.5469C103.594 16.7422 103.445 16.9141 103.273 17.0625C102.75 17.5312 102.242 17.8516 101.75 18.0234C101.266 18.1953 100.695 18.2812 100.039 18.2812C98.1484 18.2812 96.875 17.6016 96.2188 16.2422C95.8516 15.4922 95.668 14.3867 95.668 12.9258V5.22656H99.0898ZM117.371 4.92188C117.434 4.92188 117.484 4.92578 117.523 4.93359C117.57 4.93359 117.668 4.9375 117.816 4.94531V8.36719C117.605 8.34375 117.418 8.32812 117.254 8.32031C117.09 8.3125 116.957 8.30859 116.855 8.30859C115.512 8.30859 114.609 8.74609 114.148 9.62109C113.891 10.1133 113.762 10.8711 113.762 11.8945V18H110.398V5.22656H113.586V7.45312C114.102 6.60156 114.551 6.01953 114.934 5.70703C115.559 5.18359 116.371 4.92188 117.371 4.92188ZM130.566 11.4727H134.949L132.793 4.67578L130.566 11.4727ZM130.789 0.726562H134.867L140.984 18H137.07L135.957 14.4492H129.594L128.398 18H124.625L130.789 0.726562ZM151.719 11.6133C151.719 10.6289 151.492 9.75781 151.039 9C150.594 8.24219 149.867 7.86328 148.859 7.86328C147.648 7.86328 146.816 8.4375 146.363 9.58594C146.129 10.1953 146.012 10.9688 146.012 11.9062C146.012 13.3906 146.406 14.4336 147.195 15.0352C147.664 15.3867 148.219 15.5625 148.859 15.5625C149.789 15.5625 150.496 15.2031 150.98 14.4844C151.473 13.7656 151.719 12.8086 151.719 11.6133ZM149.82 4.94531C151.312 4.94531 152.574 5.49609 153.605 6.59766C154.645 7.69922 155.164 9.31641 155.164 11.4492C155.164 13.6992 154.656 15.4141 153.641 16.5938C152.633 17.7734 151.332 18.3633 149.738 18.3633C148.723 18.3633 147.879 18.1094 147.207 17.6016C146.84 17.3203 146.48 16.9102 146.129 16.3711V23.0273H142.824V5.22656H146.023V7.11328C146.383 6.55859 146.766 6.12109 147.172 5.80078C147.914 5.23047 148.797 4.94531 149.82 4.94531ZM166.391 11.6133C166.391 10.6289 166.164 9.75781 165.711 9C165.266 8.24219 164.539 7.86328 163.531 7.86328C162.32 7.86328 161.488 8.4375 161.035 9.58594C160.801 10.1953 160.684 10.9688 160.684 11.9062C160.684 13.3906 161.078 14.4336 161.867 15.0352C162.336 15.3867 162.891 15.5625 163.531 15.5625C164.461 15.5625 165.168 15.2031 165.652 14.4844C166.145 13.7656 166.391 12.8086 166.391 11.6133ZM164.492 4.94531C165.984 4.94531 167.246 5.49609 168.277 6.59766C169.316 7.69922 169.836 9.31641 169.836 11.4492C169.836 13.6992 169.328 15.4141 168.312 16.5938C167.305 17.7734 166.004 18.3633 164.41 18.3633C163.395 18.3633 162.551 18.1094 161.879 17.6016C161.512 17.3203 161.152 16.9102 160.801 16.3711V23.0273H157.496V5.22656H160.695V7.11328C161.055 6.55859 161.438 6.12109 161.844 5.80078C162.586 5.23047 163.469 4.94531 164.492 4.94531ZM177.992 15.6445C178.969 15.6445 179.719 15.2969 180.242 14.6016C180.766 13.9062 181.027 12.918 181.027 11.6367C181.027 10.3555 180.766 9.37109 180.242 8.68359C179.719 7.98828 178.969 7.64062 177.992 7.64062C177.016 7.64062 176.262 7.98828 175.73 8.68359C175.207 9.37109 174.945 10.3555 174.945 11.6367C174.945 12.918 175.207 13.9062 175.73 14.6016C176.262 15.2969 177.016 15.6445 177.992 15.6445ZM184.531 11.6367C184.531 13.5117 183.992 15.1172 182.914 16.4531C181.836 17.7812 180.199 18.4453 178.004 18.4453C175.809 18.4453 174.172 17.7812 173.094 16.4531C172.016 15.1172 171.477 13.5117 171.477 11.6367C171.477 9.79297 172.016 8.19531 173.094 6.84375C174.172 5.49219 175.809 4.81641 178.004 4.81641C180.199 4.81641 181.836 5.49219 182.914 6.84375C183.992 8.19531 184.531 9.79297 184.531 11.6367ZM190.367 3.70312H186.98V0.621094H190.367V3.70312ZM186.98 5.22656H190.367V18H186.98V5.22656ZM200.691 4.92188C202.012 4.92188 203.09 5.26953 203.926 5.96484C204.77 6.65234 205.191 7.79688 205.191 9.39844V18H201.77V10.2305C201.77 9.55859 201.68 9.04297 201.5 8.68359C201.172 8.02734 200.547 7.69922 199.625 7.69922C198.492 7.69922 197.715 8.17969 197.293 9.14062C197.074 9.64844 196.965 10.2969 196.965 11.0859V18H193.637V5.25H196.859V7.11328C197.289 6.45703 197.695 5.98438 198.078 5.69531C198.766 5.17969 199.637 4.92188 200.691 4.92188ZM206.973 7.72266V5.34375H208.754V1.78125H212.059V5.34375H214.133V7.72266H212.059V14.4727C212.059 14.9961 212.125 15.3242 212.258 15.457C212.391 15.582 212.797 15.6445 213.477 15.6445C213.578 15.6445 213.684 15.6445 213.793 15.6445C213.91 15.6367 214.023 15.6289 214.133 15.6211V18.1172L212.551 18.1758C210.973 18.2305 209.895 17.957 209.316 17.3555C208.941 16.9727 208.754 16.3828 208.754 15.5859V7.72266H206.973ZM230.551 4.94531C231.113 4.94531 231.668 5.05469 232.215 5.27344C232.762 5.49219 233.258 5.875 233.703 6.42188C234.062 6.86719 234.305 7.41406 234.43 8.0625C234.508 8.49219 234.547 9.12109 234.547 9.94922L234.523 18H231.102V9.86719C231.102 9.38281 231.023 8.98438 230.867 8.67188C230.57 8.07812 230.023 7.78125 229.227 7.78125C228.305 7.78125 227.668 8.16406 227.316 8.92969C227.137 9.33594 227.047 9.82422 227.047 10.3945V18H223.684V10.3945C223.684 9.63672 223.605 9.08594 223.449 8.74219C223.168 8.125 222.617 7.81641 221.797 7.81641C220.844 7.81641 220.203 8.125 219.875 8.74219C219.695 9.09375 219.605 9.61719 219.605 10.3125V18H216.219V5.25H219.465V7.11328C219.879 6.44922 220.27 5.97656 220.637 5.69531C221.285 5.19531 222.125 4.94531 223.156 4.94531C224.133 4.94531 224.922 5.16016 225.523 5.58984C226.008 5.98828 226.375 6.5 226.625 7.125C227.062 6.375 227.605 5.82422 228.254 5.47266C228.941 5.12109 229.707 4.94531 230.551 4.94531ZM242.668 7.64062C241.895 7.64062 241.293 7.88281 240.863 8.36719C240.441 8.85156 240.176 9.50781 240.066 10.3359H245.258C245.203 9.45312 244.934 8.78516 244.449 8.33203C243.973 7.87109 243.379 7.64062 242.668 7.64062ZM242.668 4.88672C243.73 4.88672 244.688 5.08594 245.539 5.48438C246.391 5.88281 247.094 6.51172 247.648 7.37109C248.148 8.12891 248.473 9.00781 248.621 10.0078C248.707 10.5938 248.742 11.4375 248.727 12.5391H239.984C240.031 13.8203 240.434 14.7188 241.191 15.2344C241.652 15.5547 242.207 15.7148 242.855 15.7148C243.543 15.7148 244.102 15.5195 244.531 15.1289C244.766 14.918 244.973 14.625 245.152 14.25H248.562C248.477 15.0078 248.082 15.7773 247.379 16.5586C246.285 17.8008 244.754 18.4219 242.785 18.4219C241.16 18.4219 239.727 17.8984 238.484 16.8516C237.242 15.8047 236.621 14.1016 236.621 11.7422C236.621 9.53125 237.18 7.83594 238.297 6.65625C239.422 5.47656 240.879 4.88672 242.668 4.88672ZM258.066 4.92188C259.387 4.92188 260.465 5.26953 261.301 5.96484C262.145 6.65234 262.566 7.79688 262.566 9.39844V18H259.145V10.2305C259.145 9.55859 259.055 9.04297 258.875 8.68359C258.547 8.02734 257.922 7.69922 257 7.69922C255.867 7.69922 255.09 8.17969 254.668 9.14062C254.449 9.64844 254.34 10.2969 254.34 11.0859V18H251.012V5.25H254.234V7.11328C254.664 6.45703 255.07 5.98438 255.453 5.69531C256.141 5.17969 257.012 4.92188 258.066 4.92188ZM264.348 7.72266V5.34375H266.129V1.78125H269.434V5.34375H271.508V7.72266H269.434V14.4727C269.434 14.9961 269.5 15.3242 269.633 15.457C269.766 15.582 270.172 15.6445 270.852 15.6445C270.953 15.6445 271.059 15.6445 271.168 15.6445C271.285 15.6367 271.398 15.6289 271.508 15.6211V18.1172L269.926 18.1758C268.348 18.2305 267.27 17.957 266.691 17.3555C266.316 16.9727 266.129 16.3828 266.129 15.5859V7.72266H264.348Z" fill="url(#paint0_linear_24_5)"/>
<defs>
<linearGradient id="paint0_linear_24_5" x1="314" y1="13.5001" x2="-1" y2="10.0001" gradientUnits="userSpaceOnUse">
<stop stop-color="#00FFFF"/>
<stop offset="1" stop-color="#00248F"/>
</linearGradient>
</defs>
</svg>
