<svg width="80" height="80" viewBox="0 0 80 80" fill="none" xmlns="http://www.w3.org/2000/svg">
<path d="M23.7695 0C17.6383 0 11.5082 2.52181 6.90485 7.55915C-1.19295 16.4203 -2.16711 30.4059 3.9771 40.5038H18.0006L26.8554 13.3104C26.9363 13.0573 27.164 12.8793 27.4292 12.8647C27.7426 12.8463 28.0232 13.0572 28.0933 13.3632L34.4045 40.5038H40.3215H46.7508C46.9979 40.5042 47.2229 40.6461 47.3295 40.8691L54.438 55.6786L60.9438 40.888C61.0463 40.6545 61.2776 40.5038 61.5326 40.5038H75.7168C81.9663 30.4022 81.5295 16.4311 73.4218 7.55915C64.354 -2.36354 49.4101 -2.40564 40.1633 7.21766C35.6108 2.47959 29.7158 0 23.7695 0ZM27.3626 15.9017L19.0778 41.3437C18.9923 41.6094 18.7457 41.7907 18.4664 41.7906H4.81827C5.45301 42.7055 6.14457 43.5864 6.90485 44.4183C6.90651 44.42 6.90819 44.4217 6.90987 44.4233L39.6888 79.7785C39.7494 79.8441 39.8229 79.8963 39.9048 79.9319C39.9867 79.9675 40.0752 79.9856 40.1644 79.9852C40.2537 79.9847 40.342 79.9656 40.4235 79.9292C40.505 79.8927 40.578 79.8397 40.6379 79.7734L72.7765 44.4183C73.5333 43.5858 74.2263 42.7043 74.8669 41.7894H61.9544L55.0506 57.4764C54.8292 57.9782 54.1211 57.9906 53.883 57.4965L46.3427 41.7906H40.3215H33.8923C33.593 41.7906 33.3332 41.5838 33.2658 41.2922L27.3626 15.9017Z" fill="url(#paint0_linear_26_55)"/>
<defs>
<linearGradient id="paint0_linear_26_55" x1="40.0011" y1="-4.47446e-08" x2="38.5" y2="100.5" gradientUnits="userSpaceOnUse">
<stop stop-color="#00FFFF"/>
<stop offset="1" stop-color="#00248F"/>
</linearGradient>
</defs>
</svg>
