<svg width="36" height="36" viewBox="0 0 36 36" fill="none" xmlns="http://www.w3.org/2000/svg">
<circle cx="18" cy="18" r="18" fill="url(#paint0_linear_34_48)"/>
<path d="M26.4438 27.625C24.1 27.625 21.7844 27.1143 19.4969 26.0928C17.2094 25.0713 15.1281 23.6226 13.2531 21.7469C11.3781 19.8719 9.92987 17.7906 8.90837 15.5031C7.88687 13.2156 7.37575 10.9 7.375 8.55625C7.375 8.21875 7.4875 7.9375 7.7125 7.7125C7.9375 7.4875 8.21875 7.375 8.55625 7.375H13.1125C13.375 7.375 13.6094 7.46425 13.8156 7.64275C14.0219 7.82125 14.1438 8.032 14.1813 8.275L14.9125 12.2125C14.95 12.5125 14.9406 12.7656 14.8844 12.9719C14.8281 13.1781 14.725 13.3562 14.575 13.5062L11.8469 16.2625C12.2219 16.9562 12.667 17.6264 13.1822 18.2729C13.6975 18.9194 14.2649 19.543 14.8844 20.1438C15.4656 20.725 16.075 21.2642 16.7125 21.7615C17.35 22.2587 18.025 22.7133 18.7375 23.125L21.3812 20.4812C21.55 20.3125 21.7705 20.1861 22.0428 20.1021C22.315 20.0181 22.582 19.9945 22.8438 20.0312L26.725 20.8187C26.9875 20.8938 27.2031 21.0299 27.3719 21.2271C27.5406 21.4244 27.625 21.6445 27.625 21.8875V26.4438C27.625 26.7812 27.5125 27.0625 27.2875 27.2875C27.0625 27.5125 26.7812 27.625 26.4438 27.625Z" fill="white"/>
<defs>
<linearGradient id="paint0_linear_34_48" x1="18" y1="0" x2="18" y2="47.5" gradientUnits="userSpaceOnUse">
<stop stop-color="#007DE4"/>
<stop offset="1" stop-color="#00FFFF"/>
</linearGradient>
</defs>
</svg>
