<svg width="74" height="65" viewBox="0 0 74 65" fill="none" xmlns="http://www.w3.org/2000/svg">
<path d="M70.2924 19.6045V42.4142H65.969C66.8635 41.5942 67.3853 40.4015 67.3853 39.0598V22.6607C67.3853 20.0518 65.2982 17.9646 62.6892 17.9646C60.0803 17.9646 57.9931 20.0518 57.9931 22.6607V36.5254L44.203 35.4818C43.2339 35.4073 42.2649 35.78 41.594 36.3763C40.8486 37.0472 40.4759 37.9417 40.4759 38.9107V61.3477C40.4759 63.2857 42.0413 64.8511 43.9793 64.8511C45.9174 64.8511 47.4828 63.2857 47.4828 61.3477V42.7123L50.0172 42.9359V64.4784H53.1479V45.4704H70.2924V64.5529H73.4232V19.6045H70.2924Z" fill="url(#paint0_linear_5_248)"/>
<path d="M59.1112 16.4737C62.4046 16.4737 65.0745 13.8039 65.0745 10.5104C65.0745 7.21698 62.4046 4.54712 59.1112 4.54712C55.8178 4.54712 53.1479 7.21698 53.1479 10.5104C53.1479 13.8039 55.8178 16.4737 59.1112 16.4737Z" fill="url(#paint1_linear_5_248)"/>
<path d="M29.2202 35.5563L15.3555 36.1526V22.7352C15.3555 20.1262 13.2684 18.0391 10.6594 18.0391C8.05046 18.0391 6.03785 20.1262 6.03785 22.6606V38.9852C6.03785 40.2524 6.55964 41.445 7.45413 42.3395H3.13074V19.6044H0V64.6274H3.13074V45.4703H20.2752V64.5528H23.406V42.7868L25.9404 42.7122V61.4967C25.9404 63.4347 27.5058 65.0001 29.4438 65.0001C31.3819 65.0001 32.9473 63.4347 32.9473 61.4967V39.0597C32.9473 38.0907 32.5746 37.1962 31.9037 36.5253C31.1583 35.8544 30.1892 35.4817 29.2202 35.5563Z" fill="url(#paint2_linear_5_248)"/>
<path d="M14.3119 16.4737C17.6053 16.4737 20.2752 13.8039 20.2752 10.5104C20.2752 7.21698 17.6053 4.54712 14.3119 4.54712C11.0184 4.54712 8.34857 7.21698 8.34857 10.5104C8.34857 13.8039 11.0184 16.4737 14.3119 16.4737Z" fill="url(#paint3_linear_5_248)"/>
<path d="M38.4634 27.3567H27.2822V4.91973H29.9656V6.41055C30.0402 6.55964 30.2638 6.70872 30.4874 6.70872H40.5505C40.7741 6.70872 40.9978 6.55964 41.0723 6.41055V4.91973H43.6812V16.7718L45.023 17.219V4.24886C45.023 3.87615 44.7248 3.57798 44.3521 3.57798H41.0723V2.5344C40.9978 2.31078 40.7741 2.23624 40.5505 2.23624H38.0161C37.7179 0.894496 36.6744 0 35.5562 0C34.4381 0 33.3945 0.894496 33.0964 2.23624H30.562C30.3384 2.23624 30.1147 2.38532 30.0402 2.5344V3.57798H26.6858C26.3131 3.57798 26.015 3.87615 26.015 4.24886V27.953C26.015 28.3257 26.3131 28.6239 26.6858 28.6239H39.9542C39.8796 28.6239 38.5379 27.3567 38.4634 27.3567Z" fill="url(#paint4_linear_5_248)"/>
<path d="M29.8165 22.5859C29.8165 22.9586 30.1147 23.2568 30.4874 23.2568H37.1216L37.7179 21.915H30.4874C30.1147 21.915 29.8165 22.2132 29.8165 22.5859Z" fill="url(#paint5_linear_5_248)"/>
<path d="M40.0287 17.9646H30.4874C30.1147 17.9646 29.8165 18.2628 29.8165 18.6355C29.8165 19.0082 30.1147 19.3063 30.4874 19.3063H38.836L40.0287 17.9646Z" fill="url(#paint6_linear_5_248)"/>
<path d="M40.625 9.98853H30.4874C30.1147 9.98853 29.8165 10.2867 29.8165 10.6594C29.8165 11.0321 30.1147 11.3303 30.4874 11.3303H40.5505C40.9232 11.3303 41.2214 11.0321 41.2214 10.6594C41.2959 10.2867 40.9977 9.98853 40.625 9.98853Z" fill="url(#paint7_linear_5_248)"/>
<path d="M41.2959 14.759C41.2959 14.3863 40.9977 14.0881 40.625 14.0881H30.4874C30.1147 14.0881 29.8165 14.3863 29.8165 14.759C29.8165 15.1317 30.1147 15.4299 30.4874 15.4299H40.5505C40.9977 15.4299 41.2959 15.1317 41.2959 14.759Z" fill="url(#paint8_linear_5_248)"/>
<path d="M46.8119 23.1077H44.8738V20.7969C44.8738 20.4988 44.6502 20.2751 44.3521 20.2751C44.0539 20.2751 43.8303 20.4988 43.8303 20.7969V23.6295C43.8303 23.9277 44.0539 24.1513 44.3521 24.1513H46.8119C47.1101 24.1513 47.3337 23.9277 47.3337 23.6295C47.4082 23.3313 47.1101 23.1077 46.8119 23.1077Z" fill="url(#paint9_linear_5_248)"/>
<path d="M44.2775 17.8899C41.2213 17.8899 38.7615 20.3498 38.7615 23.406C38.7615 26.4621 41.2213 28.922 44.2775 28.922C47.3337 28.922 49.7936 26.4621 49.7936 23.406C49.7936 20.3498 47.3337 17.8899 44.2775 17.8899ZM48.5264 23.406C48.5264 25.7167 46.6629 27.5057 44.4266 27.5057C42.1904 27.5057 40.3268 25.6422 40.3268 23.406C40.3268 21.1697 42.1904 19.3062 44.4266 19.3062C46.6629 19.3062 48.5264 21.0952 48.5264 23.406Z" fill="url(#paint10_linear_5_248)"/>
<defs>
<linearGradient id="paint0_linear_5_248" x1="56.9495" y1="17.9646" x2="56.1245" y2="78.1888" gradientUnits="userSpaceOnUse">
<stop stop-color="#00FFFF"/>
<stop offset="1" stop-color="#00248F"/>
</linearGradient>
<linearGradient id="paint1_linear_5_248" x1="59.1112" y1="4.54712" x2="58.9637" y2="19.8679" gradientUnits="userSpaceOnUse">
<stop stop-color="#00FFFF"/>
<stop offset="1" stop-color="#00248F"/>
</linearGradient>
<linearGradient id="paint2_linear_5_248" x1="16.4736" y1="18.0391" x2="15.646" y2="78.359" gradientUnits="userSpaceOnUse">
<stop stop-color="#00FFFF"/>
<stop offset="1" stop-color="#00248F"/>
</linearGradient>
<linearGradient id="paint3_linear_5_248" x1="14.3119" y1="4.54712" x2="14.1644" y2="19.8679" gradientUnits="userSpaceOnUse">
<stop stop-color="#00FFFF"/>
<stop offset="1" stop-color="#00248F"/>
</linearGradient>
<linearGradient id="paint4_linear_5_248" x1="35.519" y1="0" x2="34.986" y2="36.7656" gradientUnits="userSpaceOnUse">
<stop stop-color="#00FFFF"/>
<stop offset="1" stop-color="#00248F"/>
</linearGradient>
<linearGradient id="paint5_linear_5_248" x1="33.7672" y1="21.915" x2="33.7644" y2="23.6388" gradientUnits="userSpaceOnUse">
<stop stop-color="#00FFFF"/>
<stop offset="1" stop-color="#00248F"/>
</linearGradient>
<linearGradient id="paint6_linear_5_248" x1="34.9226" y1="17.9646" x2="34.9204" y2="19.6883" gradientUnits="userSpaceOnUse">
<stop stop-color="#00FFFF"/>
<stop offset="1" stop-color="#00248F"/>
</linearGradient>
<linearGradient id="paint7_linear_5_248" x1="35.5247" y1="9.98853" x2="35.5227" y2="11.7123" gradientUnits="userSpaceOnUse">
<stop stop-color="#00FFFF"/>
<stop offset="1" stop-color="#00248F"/>
</linearGradient>
<linearGradient id="paint8_linear_5_248" x1="35.5562" y1="14.0881" x2="35.5543" y2="15.8119" gradientUnits="userSpaceOnUse">
<stop stop-color="#00FFFF"/>
<stop offset="1" stop-color="#00248F"/>
</linearGradient>
<linearGradient id="paint9_linear_5_248" x1="45.5878" y1="20.2751" x2="45.5349" y2="25.2543" gradientUnits="userSpaceOnUse">
<stop stop-color="#00FFFF"/>
<stop offset="1" stop-color="#00248F"/>
</linearGradient>
<linearGradient id="paint10_linear_5_248" x1="44.2775" y1="17.8899" x2="44.1411" y2="32.0616" gradientUnits="userSpaceOnUse">
<stop stop-color="#00FFFF"/>
<stop offset="1" stop-color="#00248F"/>
</linearGradient>
</defs>
</svg>
