<svg width="106" height="79" viewBox="0 0 106 79" fill="none" xmlns="http://www.w3.org/2000/svg">
<path fill-rule="evenodd" clip-rule="evenodd" d="M6.90147 33.6731C-9.49587 13.8792 5.02749 -7.08599 32.5516 5.56338C30.7947 7.78873 29.9749 10.7168 29.5064 12.4737C30.6776 12.5908 32.5516 14.3477 32.903 15.4018C41.8044 16.6901 44.4982 17.7443 45.0838 30.1594C45.3181 36.8354 46.3722 41.5204 51.2914 46.3225L51.1743 71.5041C48.5975 71.1527 46.3722 69.9815 45.201 67.7561C46.2551 71.387 47.1921 75.252 48.129 79H44.9667C42.5071 71.7383 38.2906 66.5849 44.4982 59.4403C44.8496 59.089 44.9667 58.6205 44.8496 58.152C42.9756 50.7732 40.9845 43.6286 38.8763 36.4841C37.0023 29.6909 34.7769 22.8977 32.5516 15.8703C29.2721 16.2216 26.4611 20.2039 25.7584 23.2491C25.5242 24.4203 25.407 25.7087 25.5242 27.1142C25.6413 31.7991 24.7043 35.1957 20.2536 37.4211C16.857 38.9437 12.0549 38.9437 10.1809 35.0786C8.30695 31.0964 11.235 26.5285 14.8659 24.7717C16.9741 23.8347 19.0823 23.3662 21.3077 24.0689C21.8933 19.2669 24.5872 14.8162 29.0379 12.7079C25.407 10.3655 21.1906 8.49148 17.3255 8.49148C9.12682 8.37435 4.55899 16.6901 11.9378 20.9066C12.5234 21.258 13.3433 21.7265 14.1631 21.9607C9.71244 23.8347 6.19872 28.5196 6.90147 33.6731ZM79.8696 27.1142C79.8696 28.1683 79.8696 28.9881 79.9867 29.4566C79.8696 32.8532 82.2121 35.8984 85.1402 37.4211C88.771 39.1779 93.456 38.9437 95.3299 34.8443C96.1498 32.9704 95.7984 31.0964 95.2128 29.2224C93.3388 25.2402 88.4196 22.7806 84.2032 23.9518C83.6176 19.1497 80.9237 14.699 76.473 12.5908C80.1039 10.2483 84.3203 8.37435 88.1854 8.37435C97.7895 8.25723 101.186 18.447 91.3477 21.8436C95.6813 23.7176 99.195 28.5196 98.6094 33.556C114.89 13.762 100.483 -6.96887 73.0764 5.56338C74.599 7.43736 75.536 9.77984 75.7703 12.3566C74.599 12.8251 72.9593 14.2305 72.6079 15.2847C63.7065 16.573 61.0127 17.6271 60.427 30.0423C60.1928 36.8354 59.1387 41.5204 54.1024 46.3225L54.2195 71.387C56.7962 71.1527 59.1387 69.8643 60.3099 67.639C59.4901 70.5671 58.4359 75.4863 57.499 78.8829H60.427C63.0038 71.7383 66.8689 66.3506 60.8955 59.4403C60.5442 59.089 60.427 58.6205 60.427 58.0349C62.301 50.656 64.2921 43.5115 66.4004 36.3669C68.3915 29.5738 70.4997 22.7806 72.725 15.7532C77.5271 16.4559 80.1038 22.5463 79.8696 27.1142ZM72.6079 11.0682C66.6346 8.72572 58.2017 8.1401 52.814 12.0052C47.4263 8.1401 38.9934 8.72572 33.0201 11.0682C36.8852 -3.6894 68.5086 -3.6894 72.6079 11.0682ZM35.7139 13.0593C40.6331 11.6538 47.6606 11.4196 51.7599 14.9333C52.2284 15.4018 53.0482 15.4018 53.5167 14.8162C57.6161 11.3024 64.7606 11.5367 69.5627 12.9422C61.0127 14.4648 58.2017 16.4559 57.499 30.0423C57.2647 35.5471 56.562 39.6464 52.5798 43.7457C48.5975 39.7635 48.0119 35.5471 47.6606 30.0423C47.1921 16.573 44.3811 14.4648 35.7139 13.0593Z" fill="url(#paint0_linear_7_75)"/>
<defs>
<linearGradient id="paint0_linear_7_75" x1="52.7312" y1="0" x2="52.4786" y2="108.907" gradientUnits="userSpaceOnUse">
<stop stop-color="#00FFFF"/>
<stop offset="1" stop-color="#00248F"/>
</linearGradient>
</defs>
</svg>
