<svg width="75" height="80" viewBox="0 0 75 80" fill="none" xmlns="http://www.w3.org/2000/svg">
<path d="M72.8271 35.6306C73.5263 34.9581 74.0796 34.1511 74.4531 33.259C74.8266 32.3669 75.0125 31.4087 74.9993 30.4429C74.9862 29.4771 74.7742 28.5241 74.3765 27.6424C73.9788 26.7607 73.4036 25.9688 72.6863 25.3153C72.3764 25.0331 72.1746 24.6532 72.1152 24.2402C72.0558 23.8271 72.1424 23.4065 72.3603 23.0496C73.0095 21.9609 73.3512 20.719 73.3496 19.4542C73.3491 18.2772 73.0544 17.1186 72.4917 16.0823C71.9291 15.0459 71.116 14.164 70.1254 13.5155C68.7617 12.6455 67.1453 12.2491 65.5299 12.3886C65.177 12.4127 64.8287 12.2988 64.5595 12.0712C64.2904 11.8437 64.1218 11.5207 64.09 11.1714C64.0582 10.8221 64.1657 10.4744 64.3894 10.2027C64.6131 9.93104 64.9352 9.75708 65.2867 9.71812C65.5818 9.69122 65.8804 9.67765 66.1825 9.6774C67.9932 9.6734 69.7695 10.1678 71.3136 11.1055C71.9274 9.1198 71.7947 6.98084 70.9401 5.08473C70.0855 3.18862 68.5668 1.66384 66.6653 0.792783C64.7639 -0.0782685 62.6085 -0.236569 60.5983 0.347199C58.5882 0.930967 56.8595 2.21725 55.7325 3.96782C55.5049 4.31521 55.1625 4.57323 54.764 4.69759C54.3655 4.82194 53.9358 4.80488 53.5486 4.64932C51.969 4.04301 50.2238 4.0111 48.6227 4.55924C47.0215 5.10739 45.668 6.20016 44.8021 7.64369C44.6846 7.85669 44.5232 8.04278 44.3284 8.18985C44.1336 8.33691 43.9097 8.44166 43.6714 8.49726C43.4331 8.55287 43.1856 8.55809 42.9451 8.51258C42.7046 8.46708 42.4764 8.37187 42.2755 8.23315C41.0452 7.33272 39.5564 6.84675 38.0273 6.84648C36.4982 6.84621 35.0092 7.33166 33.7787 8.23167C33.5778 8.37018 33.3499 8.46525 33.1096 8.5107C32.8693 8.55615 32.622 8.55097 32.3839 8.49549C32.1457 8.44001 31.922 8.33548 31.7273 8.18868C31.5325 8.04188 31.3711 7.85609 31.2535 7.6434C30.7713 6.83861 30.1333 6.13632 29.3762 5.57696C28.6192 5.0176 27.7581 4.61221 26.8424 4.38412C25.9268 4.15603 24.9747 4.10975 24.0409 4.24794C23.1071 4.38612 22.2101 4.70605 21.4015 5.18931C21.1964 5.32033 20.9663 5.40841 20.7256 5.44817C20.4849 5.48792 20.2385 5.47851 20.0015 5.4205C19.7646 5.3625 19.5421 5.25712 19.3477 5.11083C19.1532 4.96455 18.991 4.78043 18.8709 4.56977C17.8295 2.6175 16.0692 1.13842 13.956 0.440199C11.8429 -0.258025 9.5396 -0.121652 7.52527 0.820953C5.51095 1.76356 3.94063 3.43983 3.14094 5.50112C2.34125 7.56241 2.37374 9.85003 3.23167 11.8882C3.3766 12.233 3.40458 12.6152 3.31142 12.9772C3.21825 13.3392 3.00898 13.6614 2.71512 13.8952C1.37435 14.9474 0.457848 16.4408 0.131537 18.105C-0.194774 19.7692 0.0906778 21.4943 0.936211 22.9679C2.42082 21.5522 4.31491 20.6325 6.3531 20.3376C6.53117 20.3157 6.71192 20.3316 6.88326 20.3845C7.05459 20.4374 7.21254 20.526 7.34653 20.6444C7.48053 20.7627 7.58747 20.9081 7.66021 21.0708C7.73294 21.2334 7.76978 21.4096 7.76826 21.5875C7.77272 21.9171 7.65805 22.2375 7.44499 22.4905C7.23193 22.7436 6.93456 22.9127 6.60667 22.9672C4.97803 23.2669 3.49921 24.1032 2.40993 25.3405C1.32066 26.5779 0.684796 28.1438 0.605425 29.7843C0.602859 29.8616 0.601603 29.939 0.601659 30.0163C0.601032 31.2019 0.900228 32.3687 1.47188 33.41C2.04352 34.4512 2.86938 35.3338 3.87388 35.9768C4.25549 36.2016 4.54392 36.5538 4.68751 36.9703C4.8311 37.3867 4.82048 37.8403 4.65754 38.2497C4.10796 39.4924 3.92893 40.8653 4.14164 42.2057C4.35434 43.5462 4.94988 44.7982 5.85777 45.8136C6.76567 46.8289 7.94791 47.5652 9.26461 47.9351C10.5813 48.3051 11.9773 48.2933 13.2875 47.9012C14.5976 47.5091 15.7671 46.753 16.6574 45.7225C17.5478 44.6919 18.1217 43.4301 18.3114 42.0862C18.5011 40.7423 18.2985 39.3727 17.7277 38.1394C17.1568 36.9062 16.2417 35.8608 15.0904 35.1271C14.7127 34.9053 14.4274 34.557 14.2859 34.145C14.1443 33.733 14.1559 33.2844 14.3184 32.8801C14.86 31.6674 15.0471 30.3282 14.8585 29.0152C14.6699 27.7022 14.1132 26.4681 13.2518 25.4535C13.01 25.1652 12.8686 24.8072 12.8487 24.4328C12.8287 24.0584 12.9314 23.6876 13.1412 23.3757C13.9197 22.2126 14.3337 20.8471 14.3311 19.4511C14.2887 17.7804 13.6696 16.1746 12.5773 14.9018C11.485 13.629 9.98544 12.7661 8.32897 12.4572C8.15012 12.4319 7.9782 12.3713 7.82329 12.2792C7.66839 12.187 7.53363 12.065 7.42696 11.9205C7.32028 11.7759 7.24383 11.6116 7.20211 11.4373C7.16039 11.2631 7.15423 11.0823 7.18401 10.9056C7.21378 10.7289 7.27888 10.5599 7.37548 10.4085C7.47208 10.2571 7.59824 10.1265 7.74652 10.0241C7.8948 9.9218 8.06222 9.8499 8.23894 9.81266C8.41565 9.77542 8.59809 9.77359 8.77553 9.80728C10.4073 10.0765 11.9449 10.7474 13.2474 11.7586C14.5499 12.7699 15.5756 14.089 16.2306 15.5952C16.2265 15.5859 16.9503 15.0316 17.0158 14.9733C18.1868 13.9297 19.0476 12.5885 19.5051 11.0947C19.5555 10.9257 19.639 10.7682 19.751 10.6312C19.8629 10.4943 20.001 10.3806 20.1573 10.2968C20.3137 10.2129 20.4852 10.1605 20.662 10.1425C20.8389 10.1245 21.0176 10.1414 21.1878 10.1921C21.3581 10.2427 21.5166 10.3263 21.6542 10.4379C21.7918 10.5494 21.9058 10.6869 21.9897 10.8422C22.0736 10.9976 22.1257 11.1679 22.1431 11.3434C22.1604 11.5188 22.1427 11.6959 22.0908 11.8645C21.6223 13.3956 20.8306 14.8103 19.7683 16.0147C20.9571 17.3275 22.5964 18.1544 24.3666 18.3342C26.1367 18.5139 27.911 18.0337 29.3435 16.987C29.5444 16.8486 29.7725 16.7536 30.0129 16.7083C30.2533 16.663 30.5006 16.6683 30.7388 16.724C30.9769 16.7796 31.2006 16.8843 31.3953 17.0313C31.59 17.1783 31.7513 17.3643 31.8687 17.5771C32.5027 18.6364 33.4037 19.5139 34.4833 20.1234C35.5628 20.7329 36.7838 21.0533 38.026 21.0533C39.2683 21.0532 40.4892 20.7327 41.5687 20.1231C42.6483 19.5136 43.5492 18.636 44.1831 17.5767C44.3006 17.3637 44.462 17.1776 44.6567 17.0306C44.8515 16.8835 45.0753 16.7788 45.3136 16.7231C45.5518 16.6674 45.7993 16.6621 46.0397 16.7075C46.2802 16.7529 46.5084 16.848 46.7094 16.9866C47.964 17.9023 49.4853 18.3882 51.0431 18.3706C52.601 18.3531 54.1107 17.8332 55.3441 16.8894C53.877 15.5566 52.7901 13.8638 52.193 11.9817C52.09 11.6438 52.126 11.2791 52.2933 10.9674C52.4605 10.6557 52.7453 10.4223 53.0855 10.3181C53.4184 10.2108 53.7805 10.2381 54.0932 10.394C54.406 10.5499 54.644 10.8219 54.7556 11.1508C54.9424 11.738 55.1919 12.3038 55.5001 12.8384C55.8925 13.6235 56.4478 14.3175 57.1297 14.8748C57.5395 15.2539 57.9845 15.5938 58.4589 15.8898C58.7696 16.0832 59.011 16.3685 59.1491 16.7054C59.2872 17.0423 59.3151 17.4138 59.2287 17.7672C58.9223 19.0002 58.9563 20.2923 59.3269 21.5078C59.6975 22.7234 60.3911 23.8176 61.3351 24.6759C61.645 24.9581 61.8468 25.338 61.9062 25.751C61.9657 26.164 61.8791 26.5847 61.6611 26.9416C60.8783 28.2582 60.5462 29.7908 60.7146 31.3101C60.8829 32.8294 61.5426 34.2539 62.5951 35.3706C62.9091 35.7093 63.0776 36.1561 63.0646 36.6159C63.0516 37.0758 62.8582 37.5125 62.5256 37.8333C61.3205 38.9959 60.5636 40.5398 60.3858 42.1977C60.3514 42.6093 60.1796 42.9979 59.8975 43.3018C59.6154 43.6058 59.2392 43.8078 58.8283 43.8759C57.6666 44.0067 56.5512 44.4022 55.5694 45.0315C54.5875 45.6607 53.7657 46.5067 53.1684 47.5032C52.967 47.8617 52.6498 48.1425 52.2678 48.3004C51.8858 48.4583 51.4614 48.4841 51.0628 48.3736C49.8858 48.0527 48.6456 48.0353 47.4598 48.3229C46.2741 48.6105 45.1821 49.1937 44.2873 50.0171C43.9735 50.3176 43.5599 50.4941 43.1241 50.5134C42.6883 50.5328 42.2603 50.3936 41.9207 50.1222C40.5931 49.0547 38.9877 48.382 37.2903 48.182C35.593 47.982 33.8733 48.263 32.3303 48.9923C30.7874 49.7216 29.4845 50.8694 28.5724 52.3028C27.6604 53.7361 27.1766 55.3964 27.1771 57.0912C27.259 60.2759 28.4937 63.3251 30.6554 65.6818C32.0496 67.0561 32.8419 68.9194 32.861 70.8686L32.8611 75.602C32.8611 75.7636 32.9053 75.9221 32.989 76.0607C33.0728 76.1993 33.1929 76.3127 33.3365 76.3889L38.265 79.004C38.4021 79.0768 38.556 79.1131 38.7115 79.1093C38.867 79.1056 39.0189 79.062 39.1523 78.9827C39.2857 78.9035 39.3962 78.7913 39.4729 78.6571C39.5496 78.5229 39.5899 78.3713 39.5899 78.217L39.5899 70.5101C39.5752 68.7996 40.1852 67.1416 41.3073 65.8423C42.3808 64.4832 43.3182 63.0235 44.1061 61.4841C44.7059 60.4325 45.0869 59.2723 45.2266 58.0722C45.2333 58.0123 45.2328 57.6142 45.2293 57.1873C45.2266 56.8296 45.3664 56.4852 45.6185 56.2292C45.8705 55.9731 46.2143 55.8261 46.575 55.8201C46.9358 55.814 47.2844 55.9494 47.545 56.1969C47.8056 56.4444 47.9571 56.7838 47.9667 57.1415C47.9537 58.8039 47.583 60.4445 46.8792 61.9535C48.4587 62.4827 50.1751 62.4475 51.7311 61.8539C53.2871 61.2603 54.5847 60.1457 55.399 58.7032C55.5993 58.3439 55.9164 58.0625 56.2986 57.9047C56.6808 57.7469 57.1056 57.7222 57.5039 57.8344C58.5686 58.1287 59.6875 58.1748 60.7732 57.9693C61.8589 57.7637 62.882 57.3121 63.7625 56.6496C64.643 55.9871 65.3571 55.1317 65.849 54.1502C66.3409 53.1688 66.5973 52.0879 66.5981 50.9919C66.5888 49.4475 66.0787 47.947 65.1433 46.712C64.953 46.447 64.8667 46.1223 64.9007 45.7987C64.9347 45.4752 65.0866 45.1751 65.3279 44.9547C65.4605 44.8267 65.6187 44.7277 65.7922 44.664C65.9658 44.6003 66.1508 44.5733 66.3355 44.5848C66.5202 44.5962 66.7004 44.6458 66.8646 44.7304C67.0288 44.8151 67.1734 44.9328 67.2889 45.0761C68.344 46.4488 69.0094 48.0763 69.2161 49.79C70.4305 49.5004 71.5472 48.9007 72.4553 48.0505C73.3635 47.2004 74.0313 46.1293 74.3926 44.9438C74.7538 43.7584 74.7958 42.4998 74.5144 41.2933C74.233 40.0867 73.6379 38.9742 72.7885 38.0664C72.4743 37.7351 72.3026 37.2955 72.3098 36.8407C72.317 36.386 72.5025 35.952 72.8271 35.6306Z" fill="url(#paint0_linear_34_52)"/>
<path d="M51.6299 43.434C51.8891 43.3338 52.1283 43.1768 52.3339 42.9718C52.5394 42.7669 52.7074 42.5181 52.8281 42.2395C52.9488 41.961 53.0198 41.6583 53.0372 41.3487C53.0546 41.039 53.018 40.7285 52.9295 40.4349C52.841 40.1413 52.7023 39.8703 52.5213 39.6375C52.3403 39.4046 52.1206 39.2145 51.8748 39.0779C51.6289 38.9412 51.3617 38.8609 51.0885 38.8413C50.8152 38.8218 50.5412 38.8634 50.2821 38.9639C43.212 41.6918 35.6096 42.1247 28.3338 40.2137C27.9256 40.0975 27.5635 39.8297 27.3053 39.4531C27.0471 39.0765 26.9076 38.6127 26.9092 38.1358C26.9071 37.8227 26.9669 37.5131 27.0842 37.2297C27.2015 36.9463 27.3733 36.6963 27.5871 36.498C27.8051 36.2927 28.0608 36.145 28.3355 36.0655C28.6102 35.986 28.8971 35.9768 29.1753 36.0385C36.3756 37.5654 43.7973 37.0532 50.7809 34.5474C52.0023 34.1174 53.0705 33.2563 53.8296 32.0897C54.5886 30.9231 54.9987 29.5121 55 28.0628C55.0033 27.0294 54.796 26.0091 54.3944 25.0813C53.9927 24.1536 53.4075 23.3434 52.6842 22.7139C51.9549 22.0719 51.1047 21.6295 50.1997 21.4211C49.2947 21.2127 48.3594 21.244 47.4668 21.5126C39.6529 23.8193 31.4048 23.3813 23.8154 20.2567C23.2974 20.0396 22.7246 20.0636 22.2221 20.3236C21.7197 20.5836 21.3284 21.0583 21.1339 21.6441C20.9394 22.2299 20.9574 22.8792 21.184 23.45C21.4105 24.0208 21.8272 24.4668 22.3431 24.6905C30.7352 28.1858 39.8729 28.6721 48.5172 26.0836C48.7937 26.0003 49.0833 25.9902 49.3637 26.054C49.6441 26.1179 49.9078 26.254 50.1343 26.4518C50.3531 26.6403 50.5301 26.8841 50.651 27.1638C50.7719 27.4435 50.8336 27.7513 50.8309 28.0628C50.8273 28.5082 50.6983 28.9408 50.4625 29.2973C50.2268 29.6538 49.8967 29.9157 49.5204 30.0447C43.2359 32.2995 36.5592 32.7726 30.0759 31.4225C28.7721 31.1242 27.4184 31.3024 26.2097 31.9314C25.0755 32.5388 24.1356 33.5303 23.52 34.7688C22.9043 36.0074 22.6432 37.4321 22.7726 38.846C22.902 40.26 23.4156 41.5936 24.2425 42.6626C25.0694 43.7316 26.1688 44.4834 27.3888 44.8141C30.6662 45.6755 34.0196 46.1101 37.3839 46.1096C42.2298 46.1077 47.0426 45.2038 51.6299 43.434Z" fill="url(#paint1_linear_34_52)"/>
<defs>
<linearGradient id="paint0_linear_34_52" x1="37.5" y1="1.45141e-08" x2="36.9863" y2="100.685" gradientUnits="userSpaceOnUse">
<stop stop-color="#00FFFF"/>
<stop offset="1" stop-color="#00248F"/>
</linearGradient>
<linearGradient id="paint1_linear_34_52" x1="38" y1="20.1096" x2="38" y2="67.9496" gradientUnits="userSpaceOnUse">
<stop stop-color="#00FFFF"/>
<stop offset="1" stop-color="#00248F"/>
</linearGradient>
</defs>
</svg>
