<svg width="92" height="80" viewBox="0 0 92 80" fill="none" xmlns="http://www.w3.org/2000/svg">
<path d="M13.0836 45.4209L13.0789 45.3807C12.758 42.6291 12.6658 40.3591 12.8428 38.1661C12.1721 38.0736 11.4746 38.0924 10.7743 38.2399C7.52399 38.9239 5.44478 42.106 6.1309 45.3478C6.81702 48.5896 10.0075 50.6632 13.2585 49.9792C13.8867 49.847 14.4706 49.6204 15 49.3193C14.0515 48.4005 13.4125 47.1116 13.091 45.4612L13.0836 45.4209Z" fill="url(#paint0_linear_7_101)"/>
<mask id="mask0_7_101" style="mask-type:luminance" maskUnits="userSpaceOnUse" x="0" y="40" width="10" height="39">
<path d="M0 40.4368H9.14877V78.5629H0V40.4368Z" fill="white"/>
</mask>
<g mask="url(#mask0_7_101)">
<path d="M4.58878 69.5953C4.38589 69.5953 4.18803 69.6133 3.99234 69.6399V41.7245C3.99234 41.0921 3.48008 40.5798 2.84838 40.5798H2.2764C1.64543 40.5798 1.13317 41.0921 1.13317 41.7245V71.2249C0.492839 71.9998 0.108643 72.9934 0.108643 74.0769C0.108643 76.5519 2.11452 78.5577 4.58878 78.5577C7.06231 78.5577 9.06748 76.5519 9.06748 74.0769C9.06748 71.6019 7.06231 69.5953 4.58878 69.5953ZM4.58878 76.2216C3.40381 76.2216 2.44404 75.2619 2.44404 74.0769C2.44404 72.8912 3.40381 71.9314 4.58878 71.9314C5.77303 71.9314 6.7328 72.8912 6.7328 74.0769C6.7328 75.2619 5.77303 76.2216 4.58878 76.2216Z" fill="url(#paint1_linear_7_101)"/>
</g>
<path d="M17.8315 52.1096H6.08269C5.48445 52.1096 5 52.596 5 53.1959V62.0234C5 62.6232 5.48445 63.1096 6.08269 63.1096H18.9462C19.1963 58.6409 18.5319 54.7877 17.8315 52.1096Z" fill="url(#paint2_linear_7_101)"/>
<mask id="mask1_7_101" style="mask-type:luminance" maskUnits="userSpaceOnUse" x="26" y="36" width="66" height="43">
<path d="M26.0938 36.0161H92V78.5627H26.0938V36.0161Z" fill="white"/>
</mask>
<g mask="url(#mask1_7_101)">
<path d="M87.412 69.5952C87.2098 69.5952 87.0119 69.6132 86.8163 69.6398V50.0328C86.8163 49.4011 86.304 48.8889 85.6723 48.8889H85.1003C84.5809 48.8889 84.1477 49.2371 84.0082 49.7119C83.588 46.0801 80.8382 41.8474 76.1472 39.7531C74.5651 39.0473 71.983 39.1156 68.713 39.2012C64.0048 39.3257 57.5562 39.4955 50.3809 37.4436C49.0017 37.0493 47.2562 36.8356 45.3 36.7521L46.1044 39.9804L45.4597 40.1416L44.4388 36.0305C44.2071 36.2737 43.933 36.4751 43.6301 36.6284L44.5575 40.366L43.9258 40.5236L43.0142 36.8593C42.8106 36.9097 42.5998 36.9406 42.3818 36.9457L35.3749 37.1256C32.2114 37.4213 29.0724 37.8349 26.3592 38.2429C26.3154 38.5371 26.2729 38.8321 26.2348 39.1286C27.9773 38.8638 29.9048 38.5947 31.9056 38.3551C32.7158 38.9767 39.3068 43.9044 44.3078 43.726C49.6449 43.5353 52.3141 41.3424 52.3141 41.3424C52.3141 41.3424 50.4197 38.6192 45.7899 37.6285C47.4598 37.7241 48.9477 37.9263 50.1456 38.2688C57.4475 40.3574 63.9724 40.1847 68.736 40.0588C71.8966 39.9746 74.3932 39.9092 75.7976 40.5366C81.7318 43.1849 83.9672 49.2328 82.957 52.4028C82.3455 54.3209 80.7245 55.1202 78.392 54.654C77.2747 54.4302 74.9601 54.3266 72.029 54.195C67.5129 53.9928 61.8924 53.741 58.1958 52.9208C56.0769 52.4502 53.5976 52.2653 51.1442 52.2653C46.4907 52.2653 41.9343 52.9323 40.1342 53.5827C37.4182 54.5633 32.4402 54.5928 28.2306 54.3885C28.6169 57.0038 28.8335 59.996 28.6824 63.2581H80.8116C81.4433 63.2581 81.9555 62.7459 81.9555 62.1134V55.0403C82.8031 54.541 83.4319 53.7381 83.7743 52.6639C83.8499 52.4251 83.911 52.1768 83.9571 51.9222V71.2248C83.3175 71.9997 82.9326 72.9933 82.9326 74.0768C82.9326 76.551 84.9384 78.5576 87.412 78.5576C89.8862 78.5576 91.8914 76.551 91.8914 74.0768C91.8914 71.6018 89.8862 69.5952 87.412 69.5952ZM87.412 76.2215C86.2277 76.2215 85.268 75.2617 85.268 74.0768C85.268 72.8911 86.2277 71.9313 87.412 71.9313C88.5962 71.9313 89.5567 72.8911 89.5567 74.0768C89.5567 75.2617 88.5962 76.2215 87.412 76.2215Z" fill="url(#paint3_linear_7_101)"/>
</g>
<path d="M14.3418 45.7881C14.9439 48.9016 16.5719 50.1304 18.3709 50.5915C19.6584 54.8833 21.5213 64.1568 17.7911 74.2774C17.1064 76.1346 18.0497 78.1976 19.8983 78.8852C20.3071 79.0375 20.7253 79.1096 21.1369 79.1096C22.5875 79.1096 23.9511 78.2149 24.485 76.7682C29.609 62.8674 26.0426 50.5807 24.5489 46.5147C24.1171 43.2554 24.5776 39.6375 25.1646 36.3992C25.2271 36.0528 25.2911 35.7101 25.3564 35.3731L20.4911 32.9812C19.7848 32.6341 19.256 32.0316 19.0017 31.2848C18.7466 30.5387 18.7962 29.737 19.1418 29.0278C19.639 28.006 20.6527 27.3718 21.785 27.3718C22.2355 27.3718 22.6701 27.4728 23.0761 27.6727L31.3749 31.7538L40 31.5316L39.1759 28.2081L39.9763 28.0075L39.265 24.1096L38.0013 24.3427L38.8498 28.9938L30.9345 30.2963L24.6689 25.6155C24.661 25.6105 24.6531 25.6061 24.6459 25.6011C24.2766 25.2901 23.8513 25.0606 23.3728 24.9409C20.9351 24.3297 17.4017 25.6602 15.9641 29.8604C15.3491 31.6925 14.8878 33.3225 14.5667 34.8962C13.8741 38.294 13.8374 41.4328 14.3418 45.7881Z" fill="url(#paint4_linear_7_101)"/>
<path d="M29.266 20.8047C30.3664 21.3152 31.721 22.6683 32.1456 23.1096C32.7124 22.5048 33.1846 21.7543 33.5146 20.8746C33.9048 19.8358 34.0514 18.7421 33.9843 17.6825C31.4705 17.3972 28.3398 17.1371 26 17.1096C27.2776 18.904 28.7431 20.321 29.266 20.8047Z" fill="url(#paint5_linear_7_101)"/>
<path d="M28 20.565C27.0107 19.8091 25.5233 18.5751 24.238 17.1096C22.7147 17.1205 21.5504 17.2061 21.0466 17.4027C20.6996 20.1442 22.3104 22.8908 25.2209 24.0726C25.2535 24.0857 25.2861 24.0966 25.318 24.1096C25.3219 22.7704 26.7903 20.8653 28 20.565Z" fill="url(#paint6_linear_7_101)"/>
<path d="M35 17.1096C34.8925 14.3876 32.5073 11.6849 32.0961 11.2385L26.3986 10.1096L22.7522 11.9821C21.8273 14.0016 20.9446 16.3608 21.0027 16.9588C21.0231 16.9491 21.0478 16.9357 21.0768 16.917C21.6021 16.5915 23.0443 16.4765 24.8221 16.4765C28.4569 16.4765 33.499 16.9581 35 17.1096Z" fill="url(#paint7_linear_7_101)"/>
<mask id="mask2_7_101" style="mask-type:luminance" maskUnits="userSpaceOnUse" x="40" y="0" width="38" height="38">
<path d="M40.2759 0.109619H77.6653V37.6738H40.2759V0.109619Z" fill="white"/>
</mask>
<g mask="url(#mask2_7_101)">
<path d="M40.4104 28.2668L41.1119 31.0835L42.2307 31.0554H42.2343L42.2458 31.0526L42.2465 31.0554L42.3077 31.0547C42.635 31.0547 42.948 31.1094 43.2415 31.2058L43.148 30.8281L44.2229 30.5597L43.4624 27.5063L42.3609 27.7811C42.335 27.5703 42.3271 27.343 42.3508 27.1055C42.3739 26.8775 42.4249 26.6415 42.517 26.4048C42.9163 25.3831 43.9632 24.5932 45.6287 24.0572C48.0872 23.2672 49.3434 24.1867 50.9341 25.3508C51.3831 25.6788 51.8493 26.0177 52.3594 26.3307H50.4312V35.8651L60.747 37.5702L75.0925 37.4868V26.3307H70.3137C70.5267 25.527 70.6267 24.6745 70.5253 23.8888C70.3727 22.6981 69.7806 21.7959 68.8136 21.28C68.1949 20.9498 67.8546 20.5505 67.8021 20.0943C67.7258 19.4324 68.2374 18.6878 68.6482 18.2259H77.566V0.109619H48.4016V18.2259H60.1958V21.0383H62.0305V26.3307H54.3264C53.1889 25.9343 52.3054 25.291 51.4406 24.6579C49.7952 23.4535 48.2404 22.3153 45.3661 23.2406C43.4372 23.8607 42.2084 24.8241 41.7141 26.104C41.5508 26.5249 41.4853 26.9386 41.4781 27.3228C41.4738 27.5581 41.4925 27.7811 41.5235 27.9898L40.4104 28.2668ZM65.5854 29.4057H52.0802V28.333H65.5854V29.4057ZM49.8304 1.53992H76.1364V16.7956H49.8304V1.53992ZM63.9364 21.039H65.771V18.2259H67.5618C67.1941 18.7633 66.8668 19.4633 66.9495 20.19C67.0351 20.944 67.5265 21.5664 68.4093 22.0376C69.1309 22.4225 69.5569 23.0823 69.6749 23.9982C69.7705 24.7443 69.6525 25.5688 69.4288 26.3307H63.9364V21.039Z" fill="url(#paint8_linear_7_101)"/>
</g>
<path d="M41.7196 31.7704L31.4223 32.0131L23.2019 28.3179C22.0988 27.8222 20.7669 28.2415 20.2269 29.2549C19.6869 30.2683 20.1437 31.4916 21.2468 31.9874L29.9569 35.9022C30.2619 36.039 30.5962 36.1096 30.9348 36.1096C30.9537 36.1096 30.9726 36.1096 30.9915 36.1096L41.8336 35.854C43.0612 35.8251 44.0307 34.8875 43.9993 33.7599C43.9685 32.6495 42.9794 31.7697 41.7777 31.7697C41.7581 31.7697 41.7385 31.7697 41.7196 31.7704Z" fill="url(#paint9_linear_7_101)"/>
<path d="M71 3.10962H75V4.10962H71V3.10962Z" fill="url(#paint10_linear_7_101)"/>
<path d="M55 13.6093C55 13.6757 54.9869 13.7399 54.9619 13.8008C54.9364 13.8622 54.9005 13.916 54.8532 13.9633C54.8064 14.0101 54.7526 14.046 54.6911 14.0716C54.6302 14.0971 54.5661 14.1096 54.4997 14.1096C54.4339 14.1096 54.3698 14.0971 54.3089 14.0716C54.2474 14.046 54.1936 14.0101 54.1463 13.9633C54.0995 13.916 54.0636 13.8622 54.0381 13.8008C54.0131 13.7399 54 13.6757 54 13.6093C54 13.543 54.0131 13.4794 54.0381 13.4185C54.0636 13.357 54.0995 13.3027 54.1463 13.2559C54.1936 13.2091 54.2474 13.1727 54.3089 13.1477C54.3698 13.1221 54.4339 13.1096 54.4997 13.1096C54.5661 13.1096 54.6302 13.1221 54.6911 13.1477C54.7526 13.1727 54.8064 13.2091 54.8532 13.2559C54.9005 13.3027 54.9364 13.357 54.9619 13.4185C54.9869 13.4794 55 13.543 55 13.6093Z" fill="url(#paint11_linear_7_101)"/>
<path d="M51 3.10962H54V4.10962H51V3.10962Z" fill="url(#paint12_linear_7_101)"/>
<path d="M59.9996 7.10962C57.7906 7.10962 56 8.90033 56 11.1093C56 13.3189 57.7906 15.1096 59.9996 15.1096C62.2094 15.1096 64 13.3189 64 11.1093C64 8.90033 62.2094 7.10962 59.9996 7.10962ZM59.7115 12.7967C58.7533 12.7967 57.9762 12.0199 57.9762 11.0613C57.9762 10.1033 58.7533 9.32655 59.7115 9.32655C60.6698 9.32655 61.4461 10.1033 61.4461 11.0613C61.4461 12.0199 60.669 12.7967 59.7115 12.7967Z" fill="url(#paint13_linear_7_101)"/>
<path d="M71 9.60997C71 9.77402 70.9809 9.9367 70.9427 10.0973C70.9044 10.2586 70.8471 10.415 70.7714 10.5666C70.6966 10.7182 70.6044 10.8622 70.4947 10.9986C70.385 11.135 70.2611 11.2609 70.1215 11.3772C69.9819 11.4935 69.8306 11.5974 69.6669 11.688C69.5031 11.7794 69.3302 11.8563 69.1482 11.9193C68.9662 11.9822 68.7784 12.0293 68.5855 12.0612C68.3919 12.0937 68.1974 12.1096 68.0004 12.1096C67.8026 12.1096 67.6081 12.0937 67.4145 12.0612C67.2216 12.0293 67.0338 11.9822 66.8518 11.9193C66.6698 11.8563 66.4969 11.7794 66.3331 11.688C66.1694 11.5974 66.0181 11.4935 65.8785 11.3772C65.7389 11.2609 65.615 11.135 65.5053 10.9986C65.3956 10.8622 65.3034 10.7182 65.2286 10.5666C65.1529 10.415 65.0956 10.2586 65.0573 10.0973C65.0191 9.9367 65 9.77402 65 9.60997C65 9.44591 65.0191 9.28323 65.0573 9.12194C65.0956 8.96134 65.1529 8.8049 65.2286 8.6533C65.3034 8.5017 65.3956 8.35702 65.5053 8.22065C65.615 8.08428 65.7389 7.9583 65.8785 7.842C66.0181 7.72571 66.1694 7.62256 66.3331 7.53119C66.4969 7.43981 66.6698 7.36298 66.8518 7.29998C67.0338 7.23768 67.2216 7.18992 67.4145 7.15808C67.6081 7.12623 67.8026 7.10962 68.0004 7.10962C68.1974 7.10962 68.3919 7.12623 68.5855 7.15808C68.7784 7.18992 68.9662 7.23768 69.1482 7.29998C69.3302 7.36298 69.5031 7.43981 69.6669 7.53119C69.8306 7.62256 69.9819 7.72571 70.1215 7.842C70.2611 7.9583 70.385 8.08428 70.4947 8.22065C70.6044 8.35702 70.6966 8.5017 70.7714 8.6533C70.8471 8.8049 70.9044 8.96134 70.9427 9.12194C70.9809 9.28323 71 9.44591 71 9.60997Z" fill="url(#paint14_linear_7_101)"/>
<path d="M66 5.10962C66 5.24081 65.9871 5.37119 65.9614 5.49996C65.9356 5.62873 65.8977 5.75348 65.8478 5.87501C65.7971 5.99574 65.7359 6.11163 65.6626 6.22028C65.5894 6.32974 65.5064 6.43034 65.4138 6.5237C65.3213 6.61626 65.2198 6.69916 65.1111 6.7724C65.0016 6.84483 64.8865 6.9068 64.7649 6.9567C64.6441 7.00741 64.5185 7.04523 64.3897 7.07099C64.2609 7.09674 64.1312 7.10962 64 7.10962C63.8688 7.10962 63.7383 7.09674 63.6095 7.07099C63.4807 7.04523 63.3559 7.00741 63.2343 6.9567C63.1135 6.9068 62.9976 6.84483 62.8889 6.7724C62.7794 6.69916 62.6787 6.61626 62.5853 6.5237C62.4928 6.43034 62.4098 6.32974 62.3374 6.22028C62.2641 6.11163 62.2021 5.99574 62.1522 5.87501C62.1023 5.75348 62.0644 5.62873 62.0386 5.49996C62.0129 5.37119 62 5.24081 62 5.10962C62 4.97843 62.0129 4.84805 62.0386 4.71928C62.0644 4.5905 62.1023 4.46576 62.1522 4.34423C62.2021 4.2227 62.2641 4.10761 62.3374 3.99815C62.4098 3.8895 62.4928 3.78809 62.5853 3.69553C62.6787 3.60217 62.7794 3.51928 62.8889 3.44684C62.9976 3.3736 63.1135 3.31163 63.2343 3.26173C63.3559 3.21183 63.4807 3.1732 63.6095 3.14825C63.7383 3.1225 63.8688 3.10962 64 3.10962C64.1312 3.10962 64.2609 3.1225 64.3897 3.14825C64.5185 3.1732 64.6441 3.21183 64.7649 3.26173C64.8865 3.31163 65.0016 3.3736 65.1111 3.44684C65.2198 3.51928 65.3213 3.60217 65.4138 3.69553C65.5064 3.78809 65.5894 3.8895 65.6626 3.99815C65.7359 4.10761 65.7971 4.2227 65.8478 4.34423C65.8977 4.46576 65.9356 4.5905 65.9614 4.71928C65.9871 4.84805 66 4.97843 66 5.10962Z" fill="url(#paint15_linear_7_101)"/>
<path d="M60 4.60962C60 4.64267 59.9933 4.67475 59.9808 4.70732C59.9674 4.73941 59.9483 4.77054 59.9233 4.80071C59.8984 4.83136 59.8678 4.8601 59.8313 4.8874C59.7949 4.9147 59.7528 4.94008 59.7068 4.96307C59.6608 4.98653 59.61 5.00713 59.5553 5.02533C59.5007 5.04353 59.4432 5.05885 59.3828 5.0713C59.3215 5.08424 59.2592 5.09334 59.195 5.10004C59.1308 5.10627 59.0656 5.10962 58.9995 5.10962C58.9344 5.10962 58.8692 5.10627 58.805 5.10004C58.7408 5.09334 58.6775 5.08424 58.6172 5.0713C58.5568 5.05885 58.4993 5.04353 58.4447 5.02533C58.39 5.00713 58.3392 4.98653 58.2932 4.96307C58.2463 4.94008 58.2051 4.9147 58.1687 4.8874C58.1322 4.8601 58.1016 4.83136 58.0767 4.80071C58.0508 4.77054 58.0326 4.73941 58.0192 4.70732C58.0067 4.67475 58 4.64267 58 4.60962C58 4.57705 58.0067 4.54449 58.0192 4.51192C58.0326 4.47983 58.0508 4.4487 58.0767 4.41853C58.1016 4.38788 58.1322 4.35914 58.1687 4.33184C58.2051 4.30454 58.2463 4.27964 58.2932 4.25617C58.3392 4.23318 58.39 4.21211 58.4447 4.19391C58.4993 4.17571 58.5568 4.16039 58.6172 4.14793C58.6775 4.13548 58.7408 4.1259 58.805 4.1192C58.8692 4.11297 58.9344 4.10962 58.9995 4.10962C59.0656 4.10962 59.1308 4.11297 59.195 4.1192C59.2592 4.1259 59.3215 4.13548 59.3828 4.14793C59.4432 4.16039 59.5007 4.17571 59.5553 4.19391C59.61 4.21211 59.6608 4.23318 59.7068 4.25617C59.7528 4.27964 59.7949 4.30454 59.8313 4.33184C59.8678 4.35914 59.8984 4.38788 59.9233 4.41853C59.9483 4.4487 59.9674 4.47983 59.9808 4.51192C59.9933 4.54449 60 4.57705 60 4.60962Z" fill="url(#paint16_linear_7_101)"/>
<path d="M58 5.60938C58 5.64244 57.9942 5.67502 57.9808 5.70713C57.9684 5.73923 57.9492 5.77038 57.9243 5.80104C57.8993 5.83123 57.8686 5.85998 57.8313 5.88729C57.7948 5.9146 57.7536 5.94 57.7076 5.963C57.6606 5.98648 57.6107 6.00708 57.5561 6.02529C57.5014 6.0435 57.4439 6.05883 57.3826 6.07177C57.3221 6.08422 57.2598 6.09381 57.1956 6.10004C57.1304 6.10627 57.0662 6.10962 57 6.10962C56.9348 6.10962 56.8696 6.10627 56.8054 6.10004C56.7402 6.09381 56.6779 6.08422 56.6174 6.07177C56.557 6.05883 56.4986 6.0435 56.4439 6.02529C56.3902 6.00708 56.3394 5.98648 56.2924 5.963C56.2464 5.94 56.2052 5.9146 56.1687 5.88729C56.1323 5.85998 56.1007 5.83123 56.0757 5.80104C56.0508 5.77038 56.0316 5.73923 56.0192 5.70713C56.0067 5.67502 56 5.64244 56 5.60938C56 5.5768 56.0067 5.54421 56.0192 5.51211C56.0316 5.48001 56.0508 5.44838 56.0757 5.4182C56.1007 5.38801 56.1323 5.35878 56.1687 5.33195C56.2052 5.30464 56.2464 5.27924 56.2924 5.25576C56.3394 5.23276 56.3902 5.21216 56.4439 5.19395C56.4986 5.17526 56.557 5.15993 56.6174 5.14747C56.6779 5.13501 56.7402 5.12543 56.8054 5.1192C56.8696 5.11249 56.9348 5.10962 57 5.10962C57.0662 5.10962 57.1304 5.11249 57.1956 5.1192C57.2598 5.12543 57.3221 5.13501 57.3826 5.14747C57.4439 5.15993 57.5014 5.17526 57.5561 5.19395C57.6107 5.21216 57.6606 5.23276 57.7076 5.25576C57.7536 5.27924 57.7948 5.30464 57.8313 5.33195C57.8686 5.35878 57.8993 5.38801 57.9243 5.4182C57.9492 5.44838 57.9684 5.48001 57.9808 5.51211C57.9942 5.54421 58 5.5768 58 5.60938Z" fill="url(#paint17_linear_7_101)"/>
<defs>
<linearGradient id="paint0_linear_7_101" x1="10.5" y1="38.1096" x2="10.7358" y2="55.4242" gradientUnits="userSpaceOnUse">
<stop stop-color="#00FFFF"/>
<stop offset="1" stop-color="#00248F"/>
</linearGradient>
<linearGradient id="paint1_linear_7_101" x1="4.58806" y1="40.5798" x2="6.95703" y2="95.285" gradientUnits="userSpaceOnUse">
<stop stop-color="#00FFFF"/>
<stop offset="1" stop-color="#00248F"/>
</linearGradient>
<linearGradient id="paint2_linear_7_101" x1="12" y1="52.1096" x2="12.1274" y2="67.9832" gradientUnits="userSpaceOnUse">
<stop stop-color="#00FFFF"/>
<stop offset="1" stop-color="#00248F"/>
</linearGradient>
<linearGradient id="paint3_linear_7_101" x1="59.0631" y1="36.0305" x2="59.4691" y2="97.4008" gradientUnits="userSpaceOnUse">
<stop stop-color="#00FFFF"/>
<stop offset="1" stop-color="#00248F"/>
</linearGradient>
<linearGradient id="paint4_linear_7_101" x1="27" y1="24.1096" x2="28.7144" y2="103.446" gradientUnits="userSpaceOnUse">
<stop stop-color="#00FFFF"/>
<stop offset="1" stop-color="#00248F"/>
</linearGradient>
<linearGradient id="paint5_linear_7_101" x1="30" y1="17.1096" x2="30.0663" y2="25.768" gradientUnits="userSpaceOnUse">
<stop stop-color="#00FFFF"/>
<stop offset="1" stop-color="#00248F"/>
</linearGradient>
<linearGradient id="paint6_linear_7_101" x1="24.5" y1="17.1096" x2="24.6032" y2="27.2106" gradientUnits="userSpaceOnUse">
<stop stop-color="#00FFFF"/>
<stop offset="1" stop-color="#00248F"/>
</linearGradient>
<linearGradient id="paint7_linear_7_101" x1="28" y1="10.1096" x2="28.0516" y2="20.2114" gradientUnits="userSpaceOnUse">
<stop stop-color="#00FFFF"/>
<stop offset="1" stop-color="#00248F"/>
</linearGradient>
<linearGradient id="paint8_linear_7_101" x1="58.9882" y1="0.109619" x2="59.5449" y2="54.1651" gradientUnits="userSpaceOnUse">
<stop stop-color="#00FFFF"/>
<stop offset="1" stop-color="#00248F"/>
</linearGradient>
<linearGradient id="paint9_linear_7_101" x1="32" y1="28.1096" x2="32.0393" y2="39.6547" gradientUnits="userSpaceOnUse">
<stop stop-color="#00FFFF"/>
<stop offset="1" stop-color="#00248F"/>
</linearGradient>
<linearGradient id="paint10_linear_7_101" x1="73" y1="3.10962" x2="73.0037" y2="4.55276" gradientUnits="userSpaceOnUse">
<stop stop-color="#00FFFF"/>
<stop offset="1" stop-color="#00248F"/>
</linearGradient>
<linearGradient id="paint11_linear_7_101" x1="54.5" y1="13.1096" x2="54.5147" y2="14.5526" gradientUnits="userSpaceOnUse">
<stop stop-color="#00FFFF"/>
<stop offset="1" stop-color="#00248F"/>
</linearGradient>
<linearGradient id="paint12_linear_7_101" x1="52.5" y1="3.10962" x2="52.5049" y2="4.55275" gradientUnits="userSpaceOnUse">
<stop stop-color="#00FFFF"/>
<stop offset="1" stop-color="#00248F"/>
</linearGradient>
<linearGradient id="paint13_linear_7_101" x1="60" y1="7.10962" x2="60.1179" y2="18.6536" gradientUnits="userSpaceOnUse">
<stop stop-color="#00FFFF"/>
<stop offset="1" stop-color="#00248F"/>
</linearGradient>
<linearGradient id="paint14_linear_7_101" x1="68" y1="7.10962" x2="68.0614" y2="14.3248" gradientUnits="userSpaceOnUse">
<stop stop-color="#00FFFF"/>
<stop offset="1" stop-color="#00248F"/>
</linearGradient>
<linearGradient id="paint15_linear_7_101" x1="64" y1="3.10962" x2="64.059" y2="8.88161" gradientUnits="userSpaceOnUse">
<stop stop-color="#00FFFF"/>
<stop offset="1" stop-color="#00248F"/>
</linearGradient>
<linearGradient id="paint16_linear_7_101" x1="59" y1="4.10962" x2="59.0074" y2="5.55273" gradientUnits="userSpaceOnUse">
<stop stop-color="#00FFFF"/>
<stop offset="1" stop-color="#00248F"/>
</linearGradient>
<linearGradient id="paint17_linear_7_101" x1="57" y1="5.10962" x2="57.0074" y2="6.55273" gradientUnits="userSpaceOnUse">
<stop stop-color="#00FFFF"/>
<stop offset="1" stop-color="#00248F"/>
</linearGradient>
</defs>
</svg>
