<svg width="36" height="36" viewBox="0 0 36 36" fill="none" xmlns="http://www.w3.org/2000/svg">
<circle cx="18" cy="18" r="18" fill="url(#paint0_linear_34_49)"/>
<path d="M28.1492 13.8672L28.407 15.0156C28.4461 15.1898 28.4461 15.3625 28.4133 15.525C28.4428 15.6404 28.4456 15.761 28.4214 15.8776C28.3971 15.9943 28.3466 16.1038 28.2735 16.1979C28.2005 16.292 28.1069 16.3681 27.9999 16.4205C27.8929 16.4728 27.7754 16.5 27.6562 16.5H25.8945L24.7359 14.9555V14.9539C24.5505 14.7059 24.3098 14.5046 24.0328 14.3661C23.7558 14.2276 23.4503 14.1557 23.1406 14.1562H22.9687V12.8359C22.9687 12.2719 22.5094 11.8125 21.9453 11.8125H20.8672C20.3031 11.8125 19.8437 12.2719 19.8437 12.8359V14.1484H15.1562V12.8359C15.1562 12.2719 14.6969 11.8125 14.1328 11.8125H13.0547C12.4906 11.8125 12.0312 12.2719 12.0312 12.8359V14.1562H11.8594C11.2281 14.1562 10.6383 14.4539 10.2578 14.9609L9.10468 16.5H7.34375C7.22463 16.5 7.10709 16.4728 7.00011 16.4205C6.89312 16.3681 6.79953 16.292 6.72648 16.1979C6.65343 16.1038 6.60286 15.9943 6.57864 15.8776C6.55441 15.761 6.55718 15.6404 6.58672 15.525C6.55251 15.3567 6.55464 15.183 6.59297 15.0156L6.84297 13.8672C7.12147 12.6201 7.81636 11.5049 8.81323 10.7055C9.81009 9.90598 11.0495 9.4698 12.3273 9.46875H22.6727C23.9499 9.46887 25.1888 9.90487 26.1846 10.7046C27.1804 11.5044 27.8735 12.6201 28.1492 13.8672Z" fill="white"/>
<path d="M24.1094 15.4219L26.9688 19.2344C27.9222 20.5025 28.4377 22.0462 28.4375 23.6328V26.2188C28.4375 26.8906 27.8906 27.4375 27.2188 27.4375H7.78125C7.10937 27.4375 6.5625 26.8906 6.5625 26.2188V23.6328C6.5625 22.0469 7.07813 20.5 8.03125 19.2344L10.8828 15.4297C11.1172 15.1172 11.4766 14.9375 11.8594 14.9375H12.5703C12.7031 14.9375 12.8125 14.8281 12.8125 14.6953V12.8359C12.8125 12.7031 12.9219 12.5938 13.0547 12.5938H14.1328C14.2656 12.5938 14.375 12.7031 14.375 12.8359V14.6953C14.375 14.8281 14.4844 14.9375 14.6172 14.9375H20.3828C20.5156 14.9375 20.625 14.8281 20.625 14.6953V12.8359C20.625 12.7031 20.7344 12.5938 20.8672 12.5938H21.9453C22.0781 12.5938 22.1875 12.7031 22.1875 12.8359V14.6953C22.1875 14.8281 22.2969 14.9375 22.4297 14.9375H23.1406C23.5234 14.9375 23.8828 15.1172 24.1094 15.4219ZM15.7016 18.8438C15.8344 18.8438 15.9445 18.7344 15.9367 18.6V17.525C15.9365 17.4606 15.9109 17.3988 15.8654 17.3531C15.8199 17.3075 15.7582 17.2817 15.6937 17.2812H14.6188C14.5542 17.2815 14.4923 17.3072 14.4466 17.3529C14.401 17.3985 14.3752 17.4604 14.375 17.525V18.6C14.375 18.7336 14.4844 18.8438 14.6266 18.8438H15.7016ZM18.0453 18.8438C18.077 18.844 18.1085 18.8378 18.1377 18.8255C18.167 18.8133 18.1934 18.7952 18.2155 18.7724C18.2375 18.7496 18.2547 18.7226 18.266 18.6929C18.2773 18.6633 18.2825 18.6317 18.2812 18.6V17.525C18.2808 17.4605 18.255 17.3987 18.2094 17.3531C18.1638 17.3075 18.102 17.2817 18.0375 17.2812H16.9625C16.8979 17.2815 16.836 17.3072 16.7904 17.3529C16.7447 17.3985 16.719 17.4604 16.7188 17.525V18.6C16.7188 18.7336 16.8281 18.8438 16.9703 18.8438H18.0453ZM19.3141 18.8438H20.3891C20.4208 18.844 20.4522 18.8378 20.4815 18.8255C20.5107 18.8133 20.5372 18.7952 20.5592 18.7724C20.5813 18.7496 20.5985 18.7226 20.6098 18.6929C20.6211 18.6633 20.6263 18.6317 20.625 18.6V17.525C20.6246 17.4605 20.5988 17.3987 20.5532 17.3531C20.5075 17.3075 20.4458 17.2817 20.3812 17.2812H19.3063C19.2417 17.2815 19.1798 17.3072 19.1341 17.3529C19.0885 17.3985 19.0627 17.4604 19.0625 17.525V18.6C19.0625 18.7336 19.1719 18.8438 19.3141 18.8438ZM15.7016 21.1875C15.8344 21.1875 15.9445 21.0781 15.9367 20.9437V19.8688C15.9365 19.8043 15.9109 19.7425 15.8654 19.6969C15.8199 19.6512 15.7582 19.6254 15.6937 19.625H14.6188C14.5542 19.6252 14.4923 19.651 14.4466 19.6966C14.401 19.7423 14.3752 19.8042 14.375 19.8688V20.9437C14.375 21.0773 14.4844 21.1875 14.6266 21.1875H15.7016ZM16.9703 21.1875H18.0453C18.077 21.1877 18.1085 21.1815 18.1377 21.1693C18.167 21.157 18.1934 21.1389 18.2155 21.1161C18.2375 21.0933 18.2547 21.0663 18.266 21.0367C18.2773 21.0071 18.2825 20.9754 18.2812 20.9437V19.8688C18.2808 19.8042 18.255 19.7425 18.2094 19.6968C18.1638 19.6512 18.102 19.6254 18.0375 19.625H16.9625C16.8979 19.6252 16.836 19.651 16.7904 19.6966C16.7447 19.7423 16.719 19.8042 16.7188 19.8688V20.9437C16.7188 21.0773 16.8281 21.1875 16.9703 21.1875ZM20.3891 21.1875C20.4208 21.1877 20.4522 21.1815 20.4815 21.1693C20.5107 21.157 20.5372 21.1389 20.5592 21.1161C20.5813 21.0933 20.5985 21.0663 20.6098 21.0367C20.6211 21.0071 20.6263 20.9754 20.625 20.9437V19.8688C20.6246 19.8042 20.5988 19.7425 20.5532 19.6968C20.5075 19.6512 20.4458 19.6254 20.3812 19.625H19.3063C19.2417 19.6252 19.1798 19.651 19.1341 19.6966C19.0885 19.7423 19.0627 19.8042 19.0625 19.8688V20.9437C19.0625 21.0773 19.1719 21.1875 19.3141 21.1875H20.3891ZM14.6266 23.5312H15.7016C15.8344 23.5312 15.9445 23.4219 15.9367 23.2875V22.2125C15.9365 22.1481 15.9109 22.0863 15.8654 22.0406C15.8199 21.995 15.7582 21.9692 15.6937 21.9688H14.6188C14.5542 21.969 14.4923 21.9947 14.4466 22.0404C14.401 22.086 14.3752 22.1479 14.375 22.2125V23.2875C14.375 23.4211 14.4844 23.5312 14.6266 23.5312ZM18.0453 23.5312C18.077 23.5315 18.1085 23.5253 18.1377 23.513C18.167 23.5008 18.1934 23.4827 18.2155 23.4599C18.2375 23.4371 18.2547 23.4101 18.266 23.3804C18.2773 23.3508 18.2825 23.3192 18.2812 23.2875V22.2125C18.2808 22.148 18.255 22.0862 18.2094 22.0406C18.1638 21.995 18.102 21.9692 18.0375 21.9688H16.9625C16.8979 21.969 16.836 21.9947 16.7904 22.0404C16.7447 22.086 16.719 22.1479 16.7188 22.2125V23.2875C16.7188 23.4211 16.8281 23.5312 16.9703 23.5312H18.0453ZM19.3141 23.5312H20.3891C20.4208 23.5315 20.4522 23.5253 20.4815 23.513C20.5107 23.5008 20.5372 23.4827 20.5592 23.4599C20.5813 23.4371 20.5985 23.4101 20.6098 23.3804C20.6211 23.3508 20.6263 23.3192 20.625 23.2875V22.2125C20.6246 22.148 20.5988 22.0862 20.5532 22.0406C20.5075 21.995 20.4458 21.9692 20.3812 21.9688H19.3063C19.2417 21.969 19.1798 21.9947 19.1341 22.0404C19.0885 22.086 19.0627 22.1479 19.0625 22.2125V23.2875C19.0625 23.4211 19.1719 23.5312 19.3141 23.5312Z" fill="white"/>
<defs>
<linearGradient id="paint0_linear_34_49" x1="18" y1="0" x2="18" y2="43.5" gradientUnits="userSpaceOnUse">
<stop stop-color="#007DE4"/>
<stop offset="1" stop-color="#00FFFF"/>
</linearGradient>
</defs>
</svg>
