<svg width="86" height="70" viewBox="0 0 86 70" fill="none" xmlns="http://www.w3.org/2000/svg">
<path d="M74.119 21.9744V26.7228C73.7561 25.9805 73.1006 25.1675 72.1525 24.2838C71.2043 23.4001 69.9752 22.6342 68.4535 21.9862C66.9318 21.3382 65.1643 21.02 63.1392 21.02C62.9988 21.02 62.87 21.0318 62.7296 21.0318V21.02H51.0241H34.496H22.5798V21.0318C20.7655 21.0907 19.1384 21.4089 17.6752 21.9862C16.0599 22.6342 14.7606 23.4001 13.7773 24.2838C12.7941 25.1675 12.1854 25.9805 11.9513 26.7228V0H0V54.4824H11.8459V49.2156C12.3727 50.1936 13.1921 51.1597 14.3041 52.1259C15.4161 53.0921 16.7388 53.8815 18.2722 54.506C19.8056 55.1304 21.4327 55.4368 23.1651 55.4368C26.3139 55.4368 29.0412 54.6591 31.3472 53.1156C32.5997 52.2791 33.7 51.2658 34.6482 50.1111L36.0645 53.528L28.5847 70H40.5477L50.2867 48.4969C51.4923 50.3585 53.014 51.902 54.8752 53.1156C57.2397 54.6591 59.9905 55.4368 63.1392 55.4368C65.2345 55.4368 67.0723 55.0362 68.6525 54.2232C70.221 53.422 71.4852 52.5147 72.4451 51.5132C73.4049 50.5117 74.0019 49.7458 74.236 49.2156V54.4824H86V21.9744H74.119ZM25.9042 42.2286C25.2604 43.4068 24.3825 44.3141 23.2705 44.9857C22.1584 45.6455 20.9059 45.9754 19.513 45.9754C18.0732 45.9754 16.7739 45.6455 15.6385 44.9857C14.5031 44.3259 13.6017 43.4068 12.9462 42.2286C12.2907 41.0503 11.963 39.7307 11.963 38.2461C11.963 36.7615 12.2907 35.4418 12.9462 34.2636C13.6017 33.0853 14.5031 32.1663 15.6385 31.4947C16.7856 30.8231 18.0732 30.4814 19.513 30.4814C20.9059 30.4814 22.1584 30.8231 23.2705 31.4947C24.3825 32.1663 25.2604 33.0971 25.9042 34.2636C26.548 35.4418 26.864 36.7615 26.864 38.2461C26.864 39.7307 26.548 41.0621 25.9042 42.2286ZM73.124 42.2286C72.4802 43.4068 71.614 44.3141 70.5137 44.9857C69.4134 45.6455 68.1375 45.9754 66.6977 45.9754C65.3047 45.9754 64.0406 45.6455 62.9051 44.9857C61.7697 44.3259 60.8567 43.4068 60.1661 42.2286C59.4871 41.0503 59.1477 39.7307 59.1477 38.2461C59.1477 36.7615 59.4871 35.4418 60.1661 34.2636C60.845 33.0853 61.758 32.1663 62.9051 31.4947C64.0523 30.8231 65.3165 30.4814 66.6977 30.4814C68.1375 30.4814 69.4134 30.8231 70.5137 31.4947C71.614 32.1663 72.4802 33.0971 73.124 34.2636C73.7678 35.4418 74.0838 36.7615 74.0838 38.2461C74.0838 39.7307 73.7561 41.0621 73.124 42.2286Z" fill="url(#paint0_linear_34_51)"/>
<path d="M30.9434 62.9987C33.1252 64.5521 36.3204 63.5754 37.7273 60.3508L40.8867 51.6185C38.3711 51.3008 36.2966 49.6532 35.6766 47.3819L34.0194 41.3446L34.4486 41.2505L30.6095 27.1871C30.5499 26.9988 30.5261 26.787 30.5261 26.5516C30.5261 24.8451 32.4098 23.4212 34.9493 23.021C35.1162 22.3502 35.8554 21.8677 36.6781 22.0325C37.2027 22.1384 37.6319 22.515 37.7511 22.9857C37.9657 23.8331 37.2623 24.598 36.3562 24.598C35.7601 24.598 35.2474 24.2685 35.0328 23.7977C32.9463 24.139 31.3964 25.2335 31.3964 26.5516C31.3964 26.7163 31.4203 26.8576 31.456 26.9988L35.2951 41.0739L35.7124 40.9798L37.3696 47.0288C37.8703 48.8529 39.6706 50.1357 41.769 50.1357C43.8554 50.1357 45.6677 48.8529 46.1684 47.0288L47.8256 40.9916L48.2429 41.0857L52.082 26.9988C52.1177 26.8693 52.1416 26.7399 52.1416 26.5634C52.1416 25.257 50.6036 24.1508 48.5052 23.8095C48.2548 24.3626 47.5872 24.7275 46.8599 24.5862C46.3353 24.4803 45.8942 24.1037 45.775 23.6212C45.5604 22.7739 46.2638 22.0089 47.1699 22.0089C47.8614 22.0089 48.4337 22.4444 48.5768 23.0328C51.1162 23.4212 53 24.8569 53 26.5634C53 26.7987 52.9762 27.0106 52.9165 27.1871L49.0775 41.2622L49.5067 41.3564L47.8495 47.3936C47.2295 49.665 45.155 51.3243 42.6393 51.6303L39.301 61.3511C37.3338 65.7172 33.0894 66.7529 29 67" fill="white"/>
<defs>
<linearGradient id="paint0_linear_34_51" x1="0.00388621" y1="35.0048" x2="86.0024" y2="35.0048" gradientUnits="userSpaceOnUse">
<stop stop-color="#00FFFF"/>
<stop offset="0.1772" stop-color="#00C4E1"/>
<stop offset="0.4001" stop-color="#0081BF"/>
<stop offset="0.602" stop-color="#004BA3"/>
<stop offset="0.7756" stop-color="#00248F"/>
<stop offset="0.914" stop-color="#000D83"/>
<stop offset="1" stop-color="#00047F"/>
</linearGradient>
</defs>
</svg>
