<svg width="65" height="80" viewBox="0 0 65 80" fill="none" xmlns="http://www.w3.org/2000/svg">
<path d="M39.5789 41.0948C39.8316 40.3369 39.6632 39.4106 39.2421 38.8211C38.7368 38.1474 37.9789 37.7264 37.1368 37.7264H28.8842C27.4526 37.7264 26.2737 38.9053 26.2737 40.3369C26.2737 41.7685 27.4526 42.9474 28.8842 42.9474H33.6L31.6632 48.8421C31.5789 49.0106 31.5789 49.0948 31.5789 49.2632C31.4105 50.6106 31.7474 51.9579 32.6737 52.9685C33.5158 53.979 34.7789 54.5685 36.1263 54.5685H47.9158C49.3474 54.5685 50.5263 53.3895 50.5263 51.9579V38.2316C50.5263 36.8 49.3474 35.6211 47.9158 35.6211C46.4842 35.6211 45.3053 36.8 45.3053 38.2316V44.1264H38.6526L39.5789 41.0948Z" fill="url(#paint0_linear_26_40)"/>
<path d="M58.2737 54.1475C61.7263 54.1475 64.5053 51.3685 64.5053 47.9159C64.5053 44.4633 61.7263 41.6843 58.2737 41.6843C54.8211 41.6843 52.0421 44.4633 52.0421 47.9159C52.0421 51.3685 54.8211 54.1475 58.2737 54.1475Z" fill="url(#paint1_linear_26_40)"/>
<path d="M39.4105 35.4525C39.5789 35.4525 39.7474 35.4525 39.9158 35.4525C42.021 35.4525 43.8737 33.8525 44.1263 31.7472C44.3789 29.4735 42.7789 27.3683 40.4211 27.1157L31.4105 26.1051C31.4105 26.1051 26.1053 18.9472 25.9368 18.6104C25.6842 18.2735 24.8421 17.0946 24.4211 16.6735C22.8211 15.0735 20.6316 14.2314 18.4421 14.3999C16.2526 14.5683 14.1474 15.5788 12.8 17.3472C12.7158 17.4314 12.7158 17.5157 12.6316 17.5999L0.926316 34.0209C0.336842 34.863 0 35.8735 0 36.9683V43.4525V43.5367V74.9472C0 77.7262 2.27368 79.9999 5.05263 79.9999C7.83158 79.9999 10.1053 77.7262 10.1053 74.9472V45.2209L23.1579 29.2209L25.6 32.5051C26.2737 33.4314 27.3684 34.0209 28.4632 34.1893L39.4105 35.4525Z" fill="url(#paint2_linear_26_40)"/>
<path d="M31.4947 16.6737C36.1263 16.6737 39.8316 12.9684 39.8316 8.33684C39.8316 3.70526 36.1263 0 31.4947 0C26.8632 0 23.1579 3.70526 23.1579 8.33684C23.1579 12.9684 26.9474 16.6737 31.4947 16.6737Z" fill="url(#paint3_linear_26_40)"/>
<path d="M61.4737 57.4316H29.2211C27.6211 57.4316 26.2737 58.779 26.2737 60.379V77.0527C26.2737 78.6527 27.6211 80.0001 29.2211 80.0001H61.4737C63.0737 80.0001 64.421 78.6527 64.421 77.0527V60.379C64.5053 58.779 63.1579 57.4316 61.4737 57.4316ZM52.3789 70.2316C52.3789 70.6527 52.0421 71.0737 51.5368 71.0737H47.7474V74.8632C47.7474 75.2843 47.4105 75.7053 46.9053 75.7053H43.8737C43.4526 75.7053 43.0316 75.3685 43.0316 74.8632V71.0737H39.2421C38.821 71.0737 38.4 70.7369 38.4 70.2316V67.2001C38.4 66.779 38.7368 66.358 39.2421 66.358H43.0316V62.5685C43.0316 62.1474 43.3684 61.7264 43.8737 61.7264H46.9053C47.3263 61.7264 47.7474 62.0632 47.7474 62.5685V66.358H51.5368C51.9579 66.358 52.3789 66.6948 52.3789 67.2001V70.2316Z" fill="url(#paint4_linear_26_40)"/>
<defs>
<linearGradient id="paint0_linear_26_40" x1="38.4" y1="35.6211" x2="37.8397" y2="62.4021" gradientUnits="userSpaceOnUse">
<stop stop-color="#00FFFF"/>
<stop offset="1" stop-color="#00248F"/>
</linearGradient>
<linearGradient id="paint1_linear_26_40" x1="58.2737" y1="41.6843" x2="57.8021" y2="59.2953" gradientUnits="userSpaceOnUse">
<stop stop-color="#00FFFF"/>
<stop offset="1" stop-color="#00248F"/>
</linearGradient>
<linearGradient id="paint2_linear_26_40" x1="22.0763" y1="14.3787" x2="18.3892" y2="107.024" gradientUnits="userSpaceOnUse">
<stop stop-color="#00FFFF"/>
<stop offset="1" stop-color="#00248F"/>
</linearGradient>
<linearGradient id="paint3_linear_26_40" x1="31.4947" y1="0" x2="30.8639" y2="23.5607" gradientUnits="userSpaceOnUse">
<stop stop-color="#00FFFF"/>
<stop offset="1" stop-color="#00248F"/>
</linearGradient>
<linearGradient id="paint4_linear_26_40" x1="45.3492" y1="57.4316" x2="44.8439" y2="89.3367" gradientUnits="userSpaceOnUse">
<stop stop-color="#00FFFF"/>
<stop offset="1" stop-color="#00248F"/>
</linearGradient>
</defs>
</svg>
