<svg width="99" height="82" viewBox="0 0 99 82" fill="none" xmlns="http://www.w3.org/2000/svg">
<path d="M54.0117 62.1739C56.1401 62.5367 60.4693 62.9962 64.3631 61.7144C77.1451 57.5061 82.4417 59.6828 84.1226 60.8074C85.0053 61.4 85.5737 62.1255 85.7672 62.8874L85.8518 63.4315C85.9002 63.7218 86.8797 70.6025 79.2855 72.2592C75.041 73.1783 68.523 73.5773 63.5529 72.3922C59.1874 71.3523 57.1559 69.4053 57.5186 66.624C57.6396 65.6808 57.1559 64.7738 56.3094 64.3627C55.2936 63.8669 54.2173 63.1292 54.0117 62.1739Z" fill="url(#paint0_linear_26_64)"/>
<path d="M98.7789 44.1317C99.9761 39.0769 96.1065 30.7209 92.0917 24.602C91.7168 24.0336 91.4629 23.429 91.3298 22.8001C90.568 19.1119 86.263 15.8227 84.9691 14.8915C84.3403 14.4441 83.8203 13.8757 83.4333 13.1985C79.5515 6.45081 74.3517 5.36247 72.2959 5.19317C71.8364 5.15689 71.389 5.06015 70.9536 4.90295L70.8811 5.12061C70.869 5.12061 69.1518 4.55226 67.2049 4.60063C64.8468 4.66109 63.2385 5.58014 62.4041 7.34567C62.0655 8.05914 61.4851 8.65168 60.7716 9.02656C58.5344 10.1995 53.782 13.8515 57.7484 22.655L55.5475 23.6466C50.5895 12.6665 57.434 8.03496 59.647 6.88615C59.9009 6.75313 60.1065 6.54755 60.2153 6.3057C61.3037 4.00809 63.2748 2.62952 65.9593 2.26674C63.0813 1.26304 60.5781 1.46862 59.4172 1.6621C58.5102 1.81931 57.5428 1.71047 56.648 1.37188C51.8955 -0.417844 46.9859 -0.139712 43.612 0.440738C44.7004 3.56065 43.4427 6.39035 42.4632 7.58753L42.306 7.78101L42.0884 7.88984C39.0168 9.54654 37.0457 11.7837 36.2476 14.565C34.7239 19.8737 37.9164 25.521 37.9406 25.5815L35.8485 26.7907C35.7276 26.5852 33.5025 22.6671 33.4179 17.9389C29.3306 16.6691 26.0292 17.9026 23.5986 21.603C20.9745 25.6298 17.9392 26.2949 16.1979 26.2949C15.3756 26.2949 14.8435 26.1377 14.7709 26.1256L15.4723 23.8159C15.7504 23.8764 18.7978 24.5294 21.567 20.2849C21.6033 20.2365 21.6275 20.1881 21.6638 20.1277C18.2657 18.471 17.4434 14.0208 17.4072 13.8032L19.7894 13.3799C19.8015 13.4283 20.5271 17.3222 23.26 18.1565C26.0051 15.3389 29.5724 14.4078 33.5751 15.472C33.6597 14.952 33.7686 14.4441 33.9137 13.9241C34.869 10.5623 37.1545 7.87775 40.7098 5.90664C41.0968 5.32619 42.2214 3.35508 41.2177 0.972818C40.9275 1.04537 40.6614 1.11793 40.4317 1.19048C39.6214 1.42025 38.775 1.46862 37.9768 1.31141C31.2412 0.0295855 25.2674 4.37087 23.0182 6.3057C22.208 6.99498 21.2043 7.43032 20.128 7.55125C16.1253 7.99868 13.4528 11.6023 12.4975 13.126C12.0743 13.7911 11.5422 14.3353 10.9134 14.7464C1.96477 20.5993 1.43269 26.0047 1.62617 28.0605C1.72291 29.1367 1.50524 30.1888 1.00944 31.1078C-0.248197 33.4538 -0.332846 35.9812 0.76759 38.2304C2.03732 40.8304 4.75818 42.7652 7.86601 43.2731L8.25297 43.3336L8.5311 43.6238C10.0306 45.1716 12.957 46.4414 16.7541 47.2153C16.8993 47.2395 17.0323 47.2879 17.1774 47.3242C17.4555 45.4256 18.4592 42.6685 21.7122 40.5039C23.1633 39.5364 24.3121 38.4844 25.4004 37.4565C22.8247 32.559 16.6937 33.3934 16.6332 33.4054L16.2825 31.0111C16.3672 30.999 18.4713 30.6967 20.9382 31.3013C23.7195 31.9785 25.8599 33.5143 27.2385 35.7756C29.0282 34.2398 30.9268 33.091 33.6356 33.4538C37.9647 34.0464 42.7414 34.2519 42.7897 34.2519V34.2761C44.1925 32.4259 45.8734 30.9748 47.3366 30.1404C54.1569 26.2587 59.1149 27.1051 62.0655 28.4958C62.0897 28.5079 62.1139 28.52 62.1381 28.5321C63.8552 25.6056 67.3016 25.1461 67.4588 25.1219L67.7612 27.5042C67.6523 27.5163 65.3305 27.8549 64.2059 29.7655C66.0077 31.1078 66.8905 32.5106 66.9389 32.5952L64.8831 33.8771C64.6775 33.5506 59.647 25.908 48.5217 32.2325C46.4659 33.4054 43.7571 36.1868 42.6688 39.5364L40.3712 38.7867C40.613 38.0249 40.9395 37.2872 41.3023 36.5858C39.5368 36.477 36.3443 36.2593 33.297 35.8361C31.0719 35.5338 29.7296 36.6826 27.3715 38.9076C26.1623 40.0443 24.8079 41.3262 23.0544 42.4992C19.6685 44.7605 19.4629 47.7474 19.5113 48.7874C19.8499 49.126 20.1401 49.5008 20.3578 49.8878C20.5029 50.1417 20.7085 50.3473 20.8657 50.4803C21.4461 50.9641 21.688 51.7501 21.4703 52.4635C21.1075 53.7212 22.5103 54.7733 26.646 57.6392C27.1539 57.9899 27.698 58.3648 28.2785 58.7759C32.9826 62.0651 39.2708 62.0772 43.5878 60.9889C44.1078 60.8559 44.6157 60.7108 45.0753 60.5415C45.4138 60.4205 45.7403 60.3238 46.0548 60.2271C46.2966 60.1545 46.5264 60.094 46.7561 60.0336C46.9859 59.9731 47.2157 59.9126 47.4333 59.8643C47.5784 59.828 47.7236 59.8038 47.8687 59.7675C48.0863 59.7192 48.2919 59.6829 48.4975 59.6466C48.6305 59.6224 48.7635 59.5982 48.8965 59.5861C49.0296 59.562 49.1626 59.5499 49.2835 59.5378C49.344 59.5257 49.4044 59.5257 49.477 59.5136C49.5979 59.5015 49.7188 59.4894 49.8398 59.4773C49.9002 59.4652 49.9607 59.4652 50.0212 59.4652C50.13 59.4531 50.2509 59.441 50.3598 59.441C51.1216 59.3927 51.7504 59.4048 52.222 59.4289C52.2946 59.4289 52.3671 59.441 52.4397 59.441C52.4639 59.441 52.4881 59.441 52.5123 59.441C52.5606 59.441 52.5969 59.4531 52.6332 59.4531C52.6574 59.4531 52.6695 59.4531 52.6937 59.4531C52.7299 59.4531 52.7662 59.4652 52.8025 59.4652C52.8146 59.4652 52.8388 59.4652 52.8509 59.4773C52.8871 59.4773 52.9113 59.4894 52.9355 59.4894C53.0081 59.5015 53.0564 59.5015 53.1048 59.5136C53.1169 59.5136 53.1411 59.5136 53.1532 59.5257C53.1774 59.5257 53.1895 59.5257 53.2015 59.5378C53.2015 59.5378 53.2015 59.5378 53.2136 59.5378L54.6769 59.8159C56.648 60.1182 60.3846 60.4689 63.6013 59.4048C76.9032 55.0272 83.0101 57.1313 85.4649 58.788C86.7951 59.6708 87.6899 60.8196 88.0648 62.0893C89.7941 62.0651 91.8015 61.0615 95.8525 57.3248C99.4078 54.0598 98.912 47.8925 98.6701 46.0786C98.5855 45.4619 98.6217 44.7968 98.7789 44.1317ZM8.65203 39.3188C5.90699 36.7309 4.62516 34.1673 4.85492 31.6883C5.13306 28.6288 7.62415 26.9721 7.73299 26.9117L8.39809 27.9275L9.05109 28.9432C8.94226 29.0158 7.40648 30.1162 7.26137 31.9422C7.11626 33.6352 8.14414 35.5338 10.3087 37.5774L8.65203 39.3188ZM52.222 7.76892C52.1374 8.50657 51.6295 9.13539 50.916 9.37725C50.2388 9.60701 48.9691 10.2116 48.0621 11.699C46.8529 13.6702 46.6594 16.5119 47.5059 20.1397L45.1478 20.6839C42.8865 10.9372 47.8566 7.97449 49.864 7.18847C50.13 5.84618 51.1095 4.87876 52.5969 4.51598L53.1774 6.86196C52.5727 7.01917 52.2704 7.2973 52.222 7.76892ZM65.2822 15.351C64.9073 13.4162 65.5482 11.8804 65.8505 11.3121L68.003 12.4246C67.5798 13.2469 66.5277 16.1371 70.9174 18.6403C73.2633 19.9825 75.3675 19.7286 77.1451 17.8784C80.0594 14.8552 82.9496 16.2459 83.0705 16.3064L81.9822 18.471C81.7524 18.3742 80.4343 17.951 78.8744 19.5593C78.2214 20.2365 77.5079 20.7686 76.7702 21.1676C77.7981 22.6913 78.6446 25.0494 77.2539 27.9154L75.0772 26.8633C76.1051 24.7471 75.307 23.0541 74.2912 21.9053C74.1098 21.9174 73.9284 21.9295 73.747 21.9295C72.441 21.9295 71.0746 21.5425 69.696 20.7565C67.1928 19.3054 65.7054 17.4914 65.2822 15.351ZM67.084 55.0151C63.831 52.9352 61.6785 53.7816 59.1874 54.7491C57.2042 55.523 54.955 56.4058 52.3551 55.3053C46.478 52.8263 41.9311 56.7444 41.7377 56.9137L40.1293 55.0998C40.1898 55.0514 41.6288 53.7816 43.9385 52.911C47.0343 51.7501 50.263 51.7984 53.2862 53.0803C54.9792 53.7937 56.4424 53.2254 58.3047 52.4998C60.8925 51.4961 64.0971 50.2264 68.39 52.9714L67.084 55.0151ZM74.521 43.1038C70.9778 45.3288 66.7333 46.4414 61.8236 46.4414C58.8488 46.4414 55.6322 46.0302 52.1858 45.22C51.7988 45.5707 51.3635 45.9214 50.8798 46.2479C46.3813 49.3436 41.3386 48.4729 39.8996 48.1344C39.3312 48.0013 38.7266 48.0618 38.1945 48.3157C36.6104 49.0413 34.1314 49.8032 31.0961 49.4404C30.044 50.6013 29.0403 52.0766 29.0403 52.79H26.6218C26.6218 51.4719 27.5771 49.9483 28.4478 48.8236C26.3074 48.0134 25.5455 46.7558 25.4488 46.5865L27.565 45.4014C27.565 45.4014 27.565 45.4014 27.565 45.3893C27.6859 45.5586 28.4478 46.5139 30.6608 46.9251L30.8542 46.9614C33.5751 47.4209 35.8002 46.7558 37.1908 46.1149C38.2187 45.6433 39.3796 45.5223 40.4679 45.7884C41.6651 46.0665 45.8492 46.7921 49.5254 44.2647C53.1169 41.7978 53.4192 38.3151 53.4313 37.6379L55.8498 37.7225C55.8257 38.3272 55.6322 40.6973 53.9997 43.1401C61.9204 44.8089 68.39 44.1075 73.2392 41.048C79.3702 37.1905 80.7366 30.8781 80.7487 30.8055L83.1189 31.2892C83.0463 31.6036 81.5106 38.702 74.521 43.1038ZM91.4508 44.1075C92.2247 45.9577 92.8898 48.9929 91.6563 52.9473L89.3466 52.2217C90.9912 46.9614 88.7178 43.6601 87.5569 42.5475C87.1216 42.7773 86.7225 42.9466 86.3839 43.0554C86.0211 45.6553 84.6426 47.7837 82.3691 49.2348C80.5069 50.4199 78.693 50.7343 78.6083 50.7464L78.4148 49.5492L78.2093 48.352C78.4874 48.3037 83.784 47.3 84.05 42.0275L84.0984 41.0359L85.0779 40.8908C85.2472 40.8666 89.3829 40.1169 89.8908 34.3245C90.181 31.0111 89.4192 28.4232 87.6295 26.6335L87.6174 26.6214L89.3224 24.9164L89.3345 24.9285C91.6563 27.2503 92.6479 30.479 92.2973 34.5422C92.007 37.8072 90.7494 39.8388 89.5159 41.0843C90.2173 41.822 90.9308 42.8498 91.4508 44.1075Z" fill="url(#paint1_linear_26_64)"/>
<path d="M63.4441 80.4461C63.4441 80.7484 63.3594 80.9782 63.1901 81.0991C62.8878 81.3168 62.6097 81.4014 62.3678 81.3531C62.1139 81.3047 61.8357 81.0991 61.6423 80.8089C57.8814 75.1737 55.1485 72.2231 50.8193 69.1274C48.038 67.1442 46.3813 64.5079 45.5711 62.9359C45.6799 62.8996 45.7766 62.8633 45.8734 62.8271C48.3161 61.9806 50.3356 61.8234 51.5328 61.8234C51.5207 63.6131 52.7662 65.2577 55.1001 66.4428C55.0638 66.7814 55.0396 67.1562 55.0638 67.5553C55.0638 67.5916 55.0638 67.6279 55.0638 67.6641C55.0759 67.773 55.088 67.8939 55.1001 68.0148C55.1001 68.0511 55.1122 68.0753 55.1122 68.1116C55.1485 68.4018 55.2089 68.7041 55.2936 69.0064C55.3057 69.0427 55.3057 69.0669 55.3178 69.1032C55.342 69.1757 55.3661 69.2483 55.3903 69.3208C55.4024 69.3692 55.4266 69.4055 55.4387 69.4539C55.4508 69.478 55.4629 69.5143 55.475 69.5385C55.5233 69.6473 55.5717 69.7562 55.6201 69.8771C55.6443 69.9376 55.6806 69.998 55.7168 70.0706C55.7289 70.0827 55.7289 70.0948 55.741 70.119C55.7652 70.1673 55.7894 70.2036 55.8136 70.252C55.8378 70.3004 55.8619 70.3366 55.8861 70.385C56.0433 70.6631 56.2247 70.9292 56.4424 71.1952C56.4666 71.2194 56.4908 71.2557 56.5149 71.2799C56.5512 71.3282 56.5875 71.3766 56.6359 71.4129C56.6722 71.4492 56.7084 71.4854 56.7447 71.5338C56.8415 71.6426 56.9503 71.7394 57.047 71.8482C57.0833 71.8845 57.1317 71.9208 57.168 71.9691C57.1921 71.9933 57.2284 72.0175 57.2526 72.0538C57.301 72.0901 57.3493 72.1384 57.3977 72.1747C57.5912 72.344 57.7968 72.5012 58.0144 72.6584C58.0628 72.6947 58.1233 72.731 58.1716 72.7673C58.353 72.8882 58.5344 73.0091 58.7279 73.118C58.7884 73.1542 58.8609 73.1905 58.9214 73.2268C59.127 73.3477 59.3446 73.4565 59.5744 73.5654C59.6349 73.6017 59.6953 73.6258 59.7679 73.65C59.8646 73.6984 59.9614 73.7347 60.0581 73.7831C60.1186 73.8072 60.1669 73.8314 60.2274 73.8556C60.3121 73.8919 60.3846 73.9161 60.4693 73.9523C60.5297 73.9765 60.5902 74.0007 60.6507 74.0249C60.7232 74.0491 60.7837 74.0733 60.8562 74.0975C60.9167 74.1216 60.9772 74.1458 61.0376 74.17C61.0981 74.1942 61.1706 74.2184 61.2311 74.2305C61.2916 74.2547 61.3399 74.2668 61.4004 74.2909C61.473 74.3151 61.5455 74.3393 61.6181 74.3635C61.7148 74.3998 61.8236 74.424 61.9204 74.4602C62.005 74.4844 62.0776 74.5086 62.1622 74.5328C62.4162 76.0807 62.8878 78.076 63.3473 79.8899C63.4078 80.0954 63.4441 80.2768 63.4441 80.4461Z" fill="url(#paint2_linear_26_64)"/>
<defs>
<linearGradient id="paint0_linear_26_64" x1="69.9648" y1="59.2341" x2="70.1005" y2="76.5676" gradientUnits="userSpaceOnUse">
<stop stop-color="#00FFFF"/>
<stop offset="1" stop-color="#00248F"/>
</linearGradient>
<linearGradient id="paint1_linear_26_64" x1="49.5" y1="0" x2="50.3735" y2="77.4602" gradientUnits="userSpaceOnUse">
<stop stop-color="#00FFFF"/>
<stop offset="1" stop-color="#00248F"/>
</linearGradient>
<linearGradient id="paint2_linear_26_64" x1="54.5076" y1="61.8234" x2="54.9868" y2="86.198" gradientUnits="userSpaceOnUse">
<stop stop-color="#00FFFF"/>
<stop offset="1" stop-color="#00248F"/>
</linearGradient>
</defs>
</svg>
