<svg width="84" height="76" viewBox="0 0 84 76" fill="none" xmlns="http://www.w3.org/2000/svg">
<path d="M83.2482 71.6105L74.9018 63.2537C78.2784 58.1954 77.7402 51.2876 73.2821 46.8247C68.2015 41.7348 59.9237 41.7242 54.8273 46.7984C49.7335 51.8751 49.7229 60.1397 54.8036 65.2296C59.2616 69.6926 66.1809 70.2458 71.251 66.8868L79.5973 75.2436C80.6024 76.25 82.2326 76.2526 83.2403 75.2488C84.2506 74.2451 84.2532 72.6169 83.2482 71.6105ZM70.2934 62.2816C66.8404 65.7249 61.2269 65.7197 57.7791 62.2658C54.334 58.8172 54.3419 53.2082 57.795 49.7701C61.248 46.3321 66.8641 46.3347 70.3092 49.7886C73.757 53.2372 73.7491 58.8435 70.2934 62.2816Z" fill="url(#paint0_linear_5_256)"/>
<path d="M16.5822 25.594L16.5984 25.6971C16.7383 26.9575 18.2456 38 28.5 38C38.7733 38 40.267 26.9522 40.3989 25.713L40.4178 25.594C41.4567 25.4487 42.3879 24.8568 43.0554 23.8871C44.1454 22.3149 44.3096 20.1085 43.4564 18.5283C43.2223 18.0923 42.8966 17.7409 42.5386 17.4291C42.9585 15.4605 42.9989 12.147 42.6436 9.06335C42.0838 6.72484 40.0463 6.14616 40.0463 6.14616C40.0463 6.14616 36.0145 0 28.5 0C20.9855 0 16.9537 6.14616 16.9537 6.14616C16.9537 6.14616 14.9162 6.72484 14.3564 9.06335C14.0011 12.147 14.0388 15.4632 14.4587 17.4317C14.1007 17.7409 13.7777 18.0923 13.5436 18.5283C12.6904 20.1111 12.8546 22.3149 13.9446 23.8871C14.6121 24.8568 15.5433 25.4487 16.5822 25.594Z" fill="url(#paint1_linear_5_256)"/>
<path d="M54 44.2112C52.1583 41.5904 49.4731 39.8876 47 38.8022C47.6707 41.954 48.1082 46.9602 45.7766 51.5428C46.2167 52.0999 46.4918 52.7957 46.4918 53.5594C46.4918 55.359 45.03 56.8185 43.2276 56.8185C41.4252 56.8185 39.9634 55.359 39.9634 53.5594C39.9634 51.7599 41.4252 50.2978 43.2276 50.2978C43.4922 50.2978 43.7463 50.3396 43.9926 50.3998C46.2508 45.7126 45.2815 40.4134 44.5977 37.8972C42.4443 37.2092 40.8436 37 40.8436 37L32.1172 49.8374L30.6711 46.5417C30.4039 45.9062 30.7602 45.6734 30.9462 45.3804L33.249 42.4248C33.4323 42.1318 33.3485 41.7343 33.0603 41.5407L29.0416 38.8623C28.8975 38.7682 28.7063 38.7158 28.5151 38.7158C28.3264 38.7158 28.1352 38.7682 27.9911 38.8623L23.9724 41.5407C23.6842 41.7343 23.6004 42.1318 23.7838 42.4248L26.0866 45.3804C26.2726 45.6734 26.6288 45.9062 26.3616 46.5417L24.9155 49.8374L16.1891 37C16.1891 37 14.5911 37.2092 12.4377 37.8972C12.063 39.2704 11.6046 41.4622 11.6255 43.9418C14.9736 43.8948 17.2004 47.2584 18.2456 50.371C19.1835 53.1619 19.9406 57.6842 16.0922 58.6206C14.7719 58.9424 14.2112 56.9153 15.5316 56.5935C17.7872 56.0443 16.831 53.0965 16.4013 51.5402C15.6207 48.7284 14.1536 45.6237 10.7034 46.2357C5.73895 47.1146 7.3239 58.4715 10.8108 57.6973C12.1338 57.4044 12.697 59.4289 11.3714 59.7218C7.77188 60.5248 6.39127 56.9283 5.84112 54.0982C5.07877 50.1905 5.3879 46.0919 9.48257 44.3996C9.50091 44.3917 9.51925 44.3865 9.54021 44.3813C9.47734 42.2469 9.74717 40.3114 10.0642 38.7917C6.16597 40.4971 1.70715 43.7169 0.908131 49.6962C-0.173826 57.8255 0.0121761 62 0.0121761 62H49.6538C47.3301 56.3712 48.4566 49.6412 53.0386 45.0796C53.3451 44.771 53.6699 44.4885 54 44.2112Z" fill="url(#paint2_linear_5_256)"/>
<defs>
<linearGradient id="paint0_linear_5_256" x1="67.5" y1="43" x2="67.26" y2="91.1972" gradientUnits="userSpaceOnUse">
<stop stop-color="#00FFFF"/>
<stop offset="1" stop-color="#00248F"/>
</linearGradient>
<linearGradient id="paint1_linear_5_256" x1="28.5" y1="0" x2="28.1613" y2="55.4991" gradientUnits="userSpaceOnUse">
<stop stop-color="#00FFFF"/>
<stop offset="1" stop-color="#00248F"/>
</linearGradient>
<linearGradient id="paint2_linear_5_256" x1="27" y1="37" x2="26.9158" y2="73.5137" gradientUnits="userSpaceOnUse">
<stop stop-color="#00FFFF"/>
<stop offset="1" stop-color="#00248F"/>
</linearGradient>
</defs>
</svg>
