<svg width="33" height="33" viewBox="0 0 33 33" fill="none" xmlns="http://www.w3.org/2000/svg">
<path d="M17.9135 2.75C19.4604 2.75412 20.2455 2.76238 20.9234 2.78162L21.1901 2.79125C21.4981 2.80225 21.802 2.816 22.1691 2.8325C23.6321 2.90125 24.6304 3.13225 25.5063 3.47188C26.4137 3.82113 27.1783 4.29412 27.9428 5.05725C28.6419 5.74461 29.1829 6.57606 29.5281 7.49375C29.8678 8.36962 30.0988 9.36787 30.1675 10.8322C30.184 11.198 30.1978 11.5019 30.2087 11.8112L30.217 12.078C30.2376 12.7545 30.2459 13.5396 30.2486 15.0865L30.25 16.1122V17.9135C30.2534 18.9164 30.2428 19.9194 30.2184 20.922L30.2101 21.1887C30.1991 21.4981 30.1854 21.802 30.1689 22.1677C30.1001 23.6321 29.8664 24.629 29.5281 25.5062C29.1839 26.4244 28.6428 27.2561 27.9428 27.9427C27.2552 28.6417 26.4238 29.1827 25.5063 29.5281C24.6304 29.8677 23.6321 30.0987 22.1691 30.1675C21.8429 30.1829 21.5165 30.1966 21.1901 30.2087L20.9234 30.217C20.2455 30.2362 19.4604 30.2459 17.9135 30.2486L16.8877 30.25H15.0879C14.0845 30.2535 13.0811 30.2429 12.078 30.2184L11.8112 30.2101C11.4848 30.1978 11.1585 30.1836 10.8322 30.1675C9.36925 30.0987 8.371 29.8677 7.49375 29.5281C6.57617 29.1835 5.74505 28.6424 5.05862 27.9427C4.35881 27.2556 3.81731 26.4241 3.47188 25.5062C3.13225 24.6304 2.90125 23.6321 2.8325 22.1677C2.81718 21.8415 2.80343 21.5151 2.79125 21.1887L2.78438 20.922C2.75904 19.9194 2.74758 18.9164 2.75 17.9135V15.0865C2.74616 14.0836 2.75625 13.0806 2.78025 12.078L2.78987 11.8112C2.80087 11.5019 2.81462 11.198 2.83112 10.8322C2.89987 9.36787 3.13087 8.371 3.4705 7.49375C3.81578 6.57512 4.35837 5.74341 5.06 5.05725C5.74625 4.35803 6.57682 3.81698 7.49375 3.47188C8.371 3.13225 9.36787 2.90125 10.8322 2.8325C11.198 2.816 11.5033 2.80225 11.8112 2.79125L12.078 2.783C13.0806 2.75857 14.0836 2.74803 15.0865 2.75137L17.9135 2.75ZM16.5 9.625C14.6766 9.625 12.928 10.3493 11.6386 11.6386C10.3493 12.928 9.625 14.6766 9.625 16.5C9.625 18.3234 10.3493 20.072 11.6386 21.3614C12.928 22.6507 14.6766 23.375 16.5 23.375C18.3234 23.375 20.072 22.6507 21.3614 21.3614C22.6507 20.072 23.375 18.3234 23.375 16.5C23.375 14.6766 22.6507 12.928 21.3614 11.6386C20.072 10.3493 18.3234 9.625 16.5 9.625ZM16.5 12.375C17.0417 12.3749 17.5781 12.4815 18.0786 12.6887C18.5791 12.896 19.0339 13.1997 19.417 13.5827C19.8001 13.9657 20.104 14.4204 20.3114 14.9208C20.5188 15.4212 20.6256 15.9576 20.6257 16.4993C20.6258 17.041 20.5192 17.5774 20.312 18.0779C20.1047 18.5784 19.801 19.0332 19.418 19.4163C19.035 19.7994 18.5803 20.1034 18.0799 20.3107C17.5795 20.5181 17.0431 20.6249 16.5014 20.625C15.4074 20.625 14.3581 20.1904 13.5846 19.4168C12.811 18.6432 12.3764 17.594 12.3764 16.5C12.3764 15.406 12.811 14.3568 13.5846 13.5832C14.3581 12.8096 15.4074 12.375 16.5014 12.375M23.7201 7.5625C23.2643 7.5625 22.8271 7.74358 22.5048 8.06591C22.1825 8.38824 22.0014 8.82541 22.0014 9.28125C22.0014 9.73709 22.1825 10.1743 22.5048 10.4966C22.8271 10.8189 23.2643 11 23.7201 11C24.176 11 24.6131 10.8189 24.9355 10.4966C25.2578 10.1743 25.4389 9.73709 25.4389 9.28125C25.4389 8.82541 25.2578 8.38824 24.9355 8.06591C24.6131 7.74358 24.176 7.5625 23.7201 7.5625Z" fill="url(#paint0_linear_9_163)"/>
<defs>
<linearGradient id="paint0_linear_9_163" x1="16.4999" y1="2.75" x2="16.4999" y2="30.2506" gradientUnits="userSpaceOnUse">
<stop offset="0.44" stop-color="#007DE4"/>
<stop offset="1" stop-color="#00FFFF"/>
</linearGradient>
</defs>
</svg>
