<svg width="153" height="15" viewBox="0 0 153 15" fill="none" xmlns="http://www.w3.org/2000/svg">
<path d="M2.09473 8.52832C2.12891 9.13867 2.27295 9.63428 2.52686 10.0151C3.01025 10.728 3.8623 11.0845 5.08301 11.0845C5.62988 11.0845 6.12793 11.0063 6.57715 10.8501C7.44629 10.5474 7.88086 10.0054 7.88086 9.22412C7.88086 8.63818 7.69775 8.2207 7.33154 7.97168C6.96045 7.72754 6.37939 7.51514 5.58838 7.33447L4.13086 7.00488C3.17871 6.79004 2.50488 6.55322 2.10938 6.29443C1.42578 5.84521 1.08398 5.17383 1.08398 4.28027C1.08398 3.31348 1.41846 2.52002 2.0874 1.8999C2.75635 1.27979 3.70361 0.969727 4.9292 0.969727C6.05713 0.969727 7.01416 1.24316 7.80029 1.79004C8.59131 2.33203 8.98682 3.20117 8.98682 4.39746H7.61719C7.54395 3.82129 7.3877 3.37939 7.14844 3.07178C6.7041 2.51025 5.94971 2.22949 4.88525 2.22949C4.02588 2.22949 3.4082 2.41016 3.03223 2.77148C2.65625 3.13281 2.46826 3.55273 2.46826 4.03125C2.46826 4.55859 2.68799 4.94434 3.12744 5.18848C3.41553 5.34473 4.06738 5.54004 5.08301 5.77441L6.5918 6.11865C7.31934 6.28467 7.88086 6.51172 8.27637 6.7998C8.95996 7.30273 9.30176 8.03271 9.30176 8.98975C9.30176 10.1812 8.86719 11.0332 7.99805 11.5459C7.13379 12.0586 6.12793 12.3149 4.98047 12.3149C3.64258 12.3149 2.59521 11.9731 1.83838 11.2896C1.08154 10.6108 0.710449 9.69043 0.725098 8.52832H2.09473ZM11.9824 9.9126C11.9824 10.2935 12.1216 10.5938 12.3999 10.8135C12.6782 11.0332 13.0078 11.1431 13.3887 11.1431C13.8525 11.1431 14.3018 11.0356 14.7363 10.8208C15.4688 10.4644 15.835 9.88086 15.835 9.07031V8.0083C15.6738 8.11084 15.4663 8.19629 15.2124 8.26465C14.9585 8.33301 14.7095 8.38184 14.4653 8.41113L13.667 8.51367C13.1885 8.57715 12.8296 8.67725 12.5903 8.81396C12.1851 9.04346 11.9824 9.40967 11.9824 9.9126ZM15.1758 7.24658C15.4785 7.20752 15.6812 7.08057 15.7837 6.86572C15.8423 6.74854 15.8716 6.58008 15.8716 6.36035C15.8716 5.91113 15.7104 5.58643 15.3882 5.38623C15.0708 5.18115 14.6143 5.07861 14.0186 5.07861C13.3301 5.07861 12.8418 5.26416 12.5537 5.63525C12.3926 5.84033 12.2876 6.14551 12.2388 6.55078H11.0083C11.0327 5.58398 11.3452 4.9126 11.9458 4.53662C12.5513 4.15576 13.252 3.96533 14.0479 3.96533C14.9707 3.96533 15.7202 4.14111 16.2964 4.49268C16.8677 4.84424 17.1533 5.39111 17.1533 6.1333V10.6523C17.1533 10.7891 17.1802 10.8989 17.2339 10.9819C17.2925 11.0649 17.4121 11.1064 17.5928 11.1064C17.6514 11.1064 17.7173 11.104 17.7905 11.0991C17.8638 11.0894 17.9419 11.0771 18.0249 11.0625V12.0366C17.8198 12.0952 17.6636 12.1318 17.5562 12.1465C17.4487 12.1611 17.3022 12.1685 17.1167 12.1685C16.6626 12.1685 16.333 12.0073 16.1279 11.6851C16.0205 11.5142 15.9448 11.2725 15.9009 10.96C15.6323 11.3115 15.2466 11.6167 14.7437 11.8755C14.2407 12.1343 13.6865 12.2637 13.0811 12.2637C12.3535 12.2637 11.7578 12.0439 11.2939 11.6045C10.835 11.1602 10.6055 10.606 10.6055 9.94189C10.6055 9.21436 10.8325 8.65039 11.2866 8.25C11.7407 7.84961 12.3364 7.60303 13.0737 7.51025L15.1758 7.24658ZM19.9658 4.15576L22.0605 10.5425L24.2505 4.15576H25.6934L22.7344 12H21.3281L18.4351 4.15576H19.9658ZM30.0879 3.97998C30.6445 3.97998 31.1841 4.11182 31.7065 4.37549C32.229 4.63428 32.627 4.97119 32.9004 5.38623C33.1641 5.78174 33.3398 6.24316 33.4277 6.77051C33.5059 7.13184 33.5449 7.70801 33.5449 8.49902H27.7954C27.8198 9.29492 28.0078 9.93457 28.3594 10.418C28.7109 10.8965 29.2554 11.1357 29.9927 11.1357C30.6812 11.1357 31.2305 10.9087 31.6406 10.4546C31.875 10.1909 32.041 9.88574 32.1387 9.53906H33.4351C33.4009 9.82715 33.2861 10.1494 33.0908 10.5059C32.9004 10.8574 32.6855 11.1455 32.4463 11.3701C32.0459 11.7607 31.5503 12.0244 30.9595 12.1611C30.6421 12.2393 30.2832 12.2783 29.8828 12.2783C28.9062 12.2783 28.0786 11.9243 27.3999 11.2163C26.7212 10.5034 26.3818 9.50732 26.3818 8.22803C26.3818 6.96826 26.7236 5.94531 27.4072 5.15918C28.0908 4.37305 28.9844 3.97998 30.0879 3.97998ZM32.1899 7.45166C32.1362 6.88037 32.0117 6.42383 31.8164 6.08203C31.4551 5.44727 30.8521 5.12988 30.0073 5.12988C29.4019 5.12988 28.894 5.34961 28.4839 5.78906C28.0737 6.22363 27.8564 6.77783 27.832 7.45166H32.1899ZM39.6094 1.96582H40.9424V4.15576H42.1948V5.23242H40.9424V10.3521C40.9424 10.6255 41.0352 10.8086 41.2207 10.9014C41.3232 10.9551 41.4941 10.9819 41.7334 10.9819C41.7969 10.9819 41.8652 10.9819 41.9385 10.9819C42.0117 10.9771 42.0972 10.9697 42.1948 10.96V12C42.0435 12.0439 41.8848 12.0757 41.7188 12.0952C41.5576 12.1147 41.3818 12.1245 41.1914 12.1245C40.5762 12.1245 40.1587 11.9683 39.939 11.6558C39.7192 11.3384 39.6094 10.9282 39.6094 10.4253V5.23242H38.5474V4.15576H39.6094V1.96582ZM43.5205 4.19238H44.8608V12H43.5205V4.19238ZM43.5205 1.24072H44.8608V2.73486H43.5205V1.24072ZM46.8604 4.15576H48.1641V5.26904C48.4766 4.8833 48.7598 4.60254 49.0137 4.42676C49.4482 4.12891 49.9414 3.97998 50.4932 3.97998C51.1182 3.97998 51.6211 4.13379 52.002 4.44141C52.2168 4.61719 52.4121 4.87598 52.5879 5.21777C52.8809 4.79785 53.2251 4.48779 53.6206 4.2876C54.0161 4.08252 54.4604 3.97998 54.9536 3.97998C56.0083 3.97998 56.7261 4.36084 57.1069 5.12256C57.312 5.53271 57.4146 6.08447 57.4146 6.77783V12H56.0449V6.55078C56.0449 6.02832 55.9131 5.66943 55.6494 5.47412C55.3906 5.27881 55.0732 5.18115 54.6973 5.18115C54.1797 5.18115 53.7329 5.35449 53.3569 5.70117C52.9858 6.04785 52.8003 6.62646 52.8003 7.43701V12H51.46V6.88037C51.46 6.34814 51.3965 5.95996 51.2695 5.71582C51.0693 5.34961 50.6958 5.1665 50.1489 5.1665C49.6509 5.1665 49.1968 5.35938 48.7866 5.74512C48.3813 6.13086 48.1787 6.8291 48.1787 7.83984V12H46.8604V4.15576ZM62.6221 3.97998C63.1787 3.97998 63.7183 4.11182 64.2407 4.37549C64.7632 4.63428 65.1611 4.97119 65.4346 5.38623C65.6982 5.78174 65.874 6.24316 65.9619 6.77051C66.04 7.13184 66.0791 7.70801 66.0791 8.49902H60.3296C60.354 9.29492 60.542 9.93457 60.8936 10.418C61.2451 10.8965 61.7896 11.1357 62.5269 11.1357C63.2153 11.1357 63.7646 10.9087 64.1748 10.4546C64.4092 10.1909 64.5752 9.88574 64.6729 9.53906H65.9692C65.9351 9.82715 65.8203 10.1494 65.625 10.5059C65.4346 10.8574 65.2197 11.1455 64.9805 11.3701C64.5801 11.7607 64.0845 12.0244 63.4937 12.1611C63.1763 12.2393 62.8174 12.2783 62.417 12.2783C61.4404 12.2783 60.6128 11.9243 59.9341 11.2163C59.2554 10.5034 58.916 9.50732 58.916 8.22803C58.916 6.96826 59.2578 5.94531 59.9414 5.15918C60.625 4.37305 61.5186 3.97998 62.6221 3.97998ZM64.7241 7.45166C64.6704 6.88037 64.5459 6.42383 64.3506 6.08203C63.9893 5.44727 63.3862 5.12988 62.5415 5.12988C61.936 5.12988 61.4282 5.34961 61.0181 5.78906C60.6079 6.22363 60.3906 6.77783 60.3662 7.45166H64.7241ZM67.9834 13.5308C68.3203 13.4722 68.5571 13.2354 68.6938 12.8203C68.7671 12.6006 68.8037 12.3882 68.8037 12.1831C68.8037 12.1489 68.8013 12.1172 68.7964 12.0879C68.7964 12.0635 68.7915 12.0342 68.7817 12H67.9834V10.4033H69.5508V11.8828C69.5508 12.4639 69.4336 12.9741 69.1992 13.4136C68.9648 13.853 68.5596 14.124 67.9834 14.2266V13.5308ZM80.2734 5.78906C80.8887 5.78906 81.3672 5.70361 81.709 5.53271C82.2461 5.26416 82.5146 4.78076 82.5146 4.08252C82.5146 3.37939 82.229 2.90576 81.6577 2.66162C81.3354 2.5249 80.8569 2.45654 80.2222 2.45654H77.6221V5.78906H80.2734ZM80.7642 10.7549C81.6577 10.7549 82.2949 10.4961 82.6758 9.97852C82.915 9.65137 83.0347 9.25586 83.0347 8.79199C83.0347 8.01074 82.6855 7.47852 81.9873 7.19531C81.6162 7.04395 81.1255 6.96826 80.5151 6.96826H77.6221V10.7549H80.7642ZM76.1938 1.24072H80.8154C82.0752 1.24072 82.9712 1.6167 83.5034 2.36865C83.8159 2.81299 83.9722 3.32568 83.9722 3.90674C83.9722 4.58545 83.7793 5.14209 83.3936 5.57666C83.1934 5.80615 82.9053 6.01611 82.5293 6.20654C83.0811 6.4165 83.4937 6.65332 83.7671 6.91699C84.2505 7.38574 84.4922 8.03271 84.4922 8.85791C84.4922 9.55127 84.2749 10.1787 83.8403 10.7402C83.1909 11.5801 82.1582 12 80.7422 12H76.1938V1.24072ZM89.1724 11.1504C90.0464 11.1504 90.6445 10.8208 90.9668 10.1616C91.2939 9.49756 91.4575 8.76025 91.4575 7.94971C91.4575 7.21729 91.3403 6.62158 91.106 6.1626C90.7349 5.43994 90.0952 5.07861 89.187 5.07861C88.3813 5.07861 87.7954 5.38623 87.4292 6.00146C87.063 6.6167 86.8799 7.35889 86.8799 8.22803C86.8799 9.06299 87.063 9.75879 87.4292 10.3154C87.7954 10.8721 88.3765 11.1504 89.1724 11.1504ZM89.2236 3.92871C90.2344 3.92871 91.0889 4.26562 91.7871 4.93945C92.4854 5.61328 92.8345 6.60449 92.8345 7.91309C92.8345 9.17773 92.5269 10.2227 91.9116 11.0479C91.2964 11.873 90.3418 12.2856 89.0479 12.2856C87.9688 12.2856 87.1118 11.9219 86.4771 11.1943C85.8423 10.4619 85.5249 9.48047 85.5249 8.25C85.5249 6.93164 85.8594 5.88184 86.5283 5.10059C87.1973 4.31934 88.0957 3.92871 89.2236 3.92871ZM97.522 11.1504C98.396 11.1504 98.9941 10.8208 99.3164 10.1616C99.6436 9.49756 99.8071 8.76025 99.8071 7.94971C99.8071 7.21729 99.6899 6.62158 99.4556 6.1626C99.0845 5.43994 98.4448 5.07861 97.5366 5.07861C96.731 5.07861 96.145 5.38623 95.7788 6.00146C95.4126 6.6167 95.2295 7.35889 95.2295 8.22803C95.2295 9.06299 95.4126 9.75879 95.7788 10.3154C96.145 10.8721 96.7261 11.1504 97.522 11.1504ZM97.5732 3.92871C98.584 3.92871 99.4385 4.26562 100.137 4.93945C100.835 5.61328 101.184 6.60449 101.184 7.91309C101.184 9.17773 100.876 10.2227 100.261 11.0479C99.646 11.873 98.6914 12.2856 97.3975 12.2856C96.3184 12.2856 95.4614 11.9219 94.8267 11.1943C94.1919 10.4619 93.8745 9.48047 93.8745 8.25C93.8745 6.93164 94.209 5.88184 94.8779 5.10059C95.5469 4.31934 96.4453 3.92871 97.5732 3.92871ZM102.729 1.24072H103.997V7.48828L107.38 4.15576H109.065L106.062 7.09277L109.233 12H107.549L105.103 8.04492L103.997 9.05566V12H102.729V1.24072ZM117.546 11.1504C118.42 11.1504 119.019 10.8208 119.341 10.1616C119.668 9.49756 119.832 8.76025 119.832 7.94971C119.832 7.21729 119.714 6.62158 119.48 6.1626C119.109 5.43994 118.469 5.07861 117.561 5.07861C116.755 5.07861 116.169 5.38623 115.803 6.00146C115.437 6.6167 115.254 7.35889 115.254 8.22803C115.254 9.06299 115.437 9.75879 115.803 10.3154C116.169 10.8721 116.75 11.1504 117.546 11.1504ZM117.598 3.92871C118.608 3.92871 119.463 4.26562 120.161 4.93945C120.859 5.61328 121.208 6.60449 121.208 7.91309C121.208 9.17773 120.901 10.2227 120.286 11.0479C119.67 11.873 118.716 12.2856 117.422 12.2856C116.343 12.2856 115.486 11.9219 114.851 11.1943C114.216 10.4619 113.899 9.48047 113.899 8.25C113.899 6.93164 114.233 5.88184 114.902 5.10059C115.571 4.31934 116.47 3.92871 117.598 3.92871ZM122.783 4.15576H124.036V5.26904C124.407 4.81006 124.8 4.48047 125.215 4.28027C125.63 4.08008 126.091 3.97998 126.599 3.97998C127.712 3.97998 128.464 4.36816 128.855 5.14453C129.07 5.56934 129.177 6.17725 129.177 6.96826V12H127.837V7.05615C127.837 6.57764 127.766 6.19189 127.625 5.89893C127.39 5.41064 126.965 5.1665 126.35 5.1665C126.038 5.1665 125.781 5.19824 125.581 5.26172C125.22 5.36914 124.902 5.58398 124.629 5.90625C124.409 6.16504 124.265 6.43359 124.197 6.71191C124.133 6.98535 124.102 7.37842 124.102 7.89111V12H122.783V4.15576ZM131.169 1.24072H132.488V12H131.169V1.24072ZM134.473 4.19238H135.813V12H134.473V4.19238ZM134.473 1.24072H135.813V2.73486H134.473V1.24072ZM137.812 4.15576H139.065V5.26904C139.436 4.81006 139.829 4.48047 140.244 4.28027C140.659 4.08008 141.121 3.97998 141.628 3.97998C142.742 3.97998 143.494 4.36816 143.884 5.14453C144.099 5.56934 144.207 6.17725 144.207 6.96826V12H142.866V7.05615C142.866 6.57764 142.795 6.19189 142.654 5.89893C142.419 5.41064 141.995 5.1665 141.379 5.1665C141.067 5.1665 140.811 5.19824 140.61 5.26172C140.249 5.36914 139.932 5.58398 139.658 5.90625C139.438 6.16504 139.294 6.43359 139.226 6.71191C139.163 6.98535 139.131 7.37842 139.131 7.89111V12H137.812V4.15576ZM149.429 3.97998C149.985 3.97998 150.525 4.11182 151.047 4.37549C151.57 4.63428 151.968 4.97119 152.241 5.38623C152.505 5.78174 152.681 6.24316 152.769 6.77051C152.847 7.13184 152.886 7.70801 152.886 8.49902H147.136C147.161 9.29492 147.349 9.93457 147.7 10.418C148.052 10.8965 148.596 11.1357 149.333 11.1357C150.022 11.1357 150.571 10.9087 150.981 10.4546C151.216 10.1909 151.382 9.88574 151.479 9.53906H152.776C152.742 9.82715 152.627 10.1494 152.432 10.5059C152.241 10.8574 152.026 11.1455 151.787 11.3701C151.387 11.7607 150.891 12.0244 150.3 12.1611C149.983 12.2393 149.624 12.2783 149.224 12.2783C148.247 12.2783 147.419 11.9243 146.741 11.2163C146.062 10.5034 145.723 9.50732 145.723 8.22803C145.723 6.96826 146.064 5.94531 146.748 5.15918C147.432 4.37305 148.325 3.97998 149.429 3.97998ZM151.531 7.45166C151.477 6.88037 151.353 6.42383 151.157 6.08203C150.796 5.44727 150.193 5.12988 149.348 5.12988C148.743 5.12988 148.235 5.34961 147.825 5.78906C147.415 6.22363 147.197 6.77783 147.173 7.45166H151.531Z" fill="url(#paint0_linear_24_6)"/>
<defs>
<linearGradient id="paint0_linear_24_6" x1="150.5" y1="8.50002" x2="-35" y2="8.00004" gradientUnits="userSpaceOnUse">
<stop stop-color="#00248F"/>
<stop offset="1" stop-color="#00FFFF"/>
</linearGradient>
</defs>
</svg>
