<svg width="27" height="27" viewBox="0 0 27 27" fill="none" xmlns="http://www.w3.org/2000/svg">
<path d="M24.9 27L15.45 17.55C14.7 18.15 13.8375 18.625 12.8625 18.975C11.8875 19.325 10.85 19.5 9.75 19.5C7.025 19.5 4.719 18.556 2.832 16.668C0.945 14.78 0.001 12.474 0 9.75C0 7.025 0.944 4.719 2.832 2.832C4.72 0.945 7.026 0.001 9.75 0C12.475 0 14.7815 0.944 16.6695 2.832C18.5575 4.72 19.501 7.026 19.5 9.75C19.5 10.85 19.325 11.8875 18.975 12.8625C18.625 13.8375 18.15 14.7 17.55 15.45L27 24.9L24.9 27ZM9.75 16.5C11.625 16.5 13.219 15.844 14.532 14.532C15.845 13.22 16.501 11.626 16.5 9.75C16.5 7.875 15.844 6.2815 14.532 4.9695C13.22 3.6575 11.626 3.001 9.75 3C7.875 3 6.2815 3.6565 4.9695 4.9695C3.6575 6.2825 3.001 7.876 3 9.75C3 11.625 3.6565 13.219 4.9695 14.532C6.2825 15.845 7.876 16.501 9.75 16.5Z" fill="white"/>
</svg>
