<svg width="51" height="80" viewBox="0 0 51 80" fill="none" xmlns="http://www.w3.org/2000/svg">
<path d="M51 0H39.4747C38.7707 0.875 23.8639 20.07 21.8755 26.8225C19.1362 36.1575 24.6074 34.8 22.1842 40.3375C21.2283 42.515 18.4668 43.995 12.7807 39.585C8.24564 36.07 13.7094 29.8075 13.7094 29.8075C20.1958 13.95 31.8521 0 31.8521 0H17.5578C17.5578 0 8.25552 14.08 4.39481 26.88C3.59204 29.5375 -1.82729 34.6825 0.63784 43.7675C0.63784 43.7675 0.921897 60.3425 2.90289 80H6.7142C6.57341 76.225 6.29182 69.975 6.43261 63.73L7.82573 64.0175L8.47289 73.9475L9.83142 64.425L11.8371 64.8375C11.5358 71.825 11.7976 79.9975 11.7976 79.9975H14.3442C15.1643 76.18 15.6336 70.8425 15.9053 65.6725L19.5412 66.42C18.9237 72.69 18.1333 78.3825 17.9011 80H21.463C21.463 80 29.2659 54.2775 28.1815 42.34C28.1815 42.34 47.1887 20.2975 51 0ZM4.60476 34.6025C6.26712 30.69 8.31974 30.4675 9.52513 31.6875C10.5749 32.755 8.03074 35.43 9.22873 40.2225C10.4267 45.015 1.11209 42.825 4.60476 34.6025ZM20.2205 50.4875C20.4675 53.6725 20.2403 58.315 19.85 62.9975L16.0832 61.595C16.2215 57.5475 16.2511 53.915 16.2561 51.6275C13.3068 52.8025 12.9561 55.41 12.5238 57.5875C12.3781 58.32 12.262 59.1925 12.1607 60.14L10.0191 59.3475L9.83142 53.0875L8.12461 58.6425L6.69691 58.1125C7.26996 50.44 8.81622 44.0025 12.5263 43.995C16.0461 43.9875 19.2745 44.1525 20.3292 45.68C21.4358 47.285 21.8038 49.4475 20.2205 50.4875Z" fill="url(#paint0_linear_26_51)"/>
<defs>
<linearGradient id="paint0_linear_26_51" x1="25.5" y1="0" x2="26" y2="106" gradientUnits="userSpaceOnUse">
<stop stop-color="#00FFFF"/>
<stop offset="1" stop-color="#00248F"/>
</linearGradient>
</defs>
</svg>
