<svg width="80" height="80" viewBox="0 0 80 80" fill="none" xmlns="http://www.w3.org/2000/svg">
<path d="M34.0234 67.4404H45.9766C46.225 67.4332 46.471 67.4909 46.6904 67.6076C46.9098 67.7243 47.095 67.8962 47.2277 68.1062C47.3694 68.3084 47.457 68.5436 47.4822 68.7892C47.5074 69.0348 47.4694 69.2829 47.3717 69.5097C46.9329 70.7175 46.0733 71.7268 44.9505 72.3527C42.5653 73.6212 37.4347 73.6212 35.0495 72.3527C33.9246 71.7293 33.0643 70.7191 32.6283 69.5097C32.5344 69.2806 32.5009 69.0313 32.5308 68.7856C32.5607 68.5399 32.6532 68.306 32.7993 68.1062C32.9297 67.9001 33.1105 67.7308 33.3248 67.6143C33.539 67.4978 33.7795 67.4379 34.0234 67.4404ZM80 29.7976V76.6712C80 77.554 79.6491 78.4007 79.0246 79.025C78.4 79.6493 77.5529 80 76.6697 80H3.33033C2.44707 80 1.59999 79.6493 0.975432 79.025C0.350873 78.4007 0 77.554 0 76.6712V29.7976C-3.21156e-06 28.9139 0.350583 28.0663 0.974884 27.4405C1.59919 26.8148 2.44625 26.4621 3.33033 26.4597H76.6697C77.5537 26.4621 78.4008 26.8148 79.0251 27.4405C79.6494 28.0663 80 28.9139 80 29.7976ZM18.7939 30.3104C18.668 30.2749 18.5363 30.2647 18.4065 30.2804C18.2766 30.296 18.1512 30.3373 18.0373 30.4017C17.9235 30.4661 17.8236 30.5524 17.7433 30.6557C17.6631 30.7589 17.6041 30.877 17.5698 31.0032L11.9352 51.435C11.9065 51.5221 11.8913 51.6132 11.8902 51.7049V75.1957C11.9139 75.4453 12.0298 75.6772 12.2154 75.8459C12.401 76.0147 12.6429 76.1082 12.8938 76.1082C13.1447 76.1082 13.3866 76.0147 13.5722 75.8459C13.7577 75.6772 13.8737 75.4453 13.8974 75.1957V51.8039L19.4779 31.516C19.5415 31.2632 19.5036 30.9956 19.3724 30.7704C19.2412 30.5451 19.0271 30.38 18.7759 30.3104H18.7939ZM59.1089 42.7171C51.9082 39.1183 43.8074 38.7494 40.9991 38.7314V33.1714C43.5644 33.1714 50.8281 33.5673 57.2727 36.9411C57.5069 37.0615 57.7792 37.0846 58.0303 37.0054C58.2815 36.9262 58.4912 36.7512 58.6139 36.5182C58.6751 36.4031 58.7129 36.277 58.7252 36.1472C58.7375 36.0174 58.724 35.8865 58.6855 35.762C58.6471 35.6374 58.5844 35.5216 58.501 35.4214C58.4176 35.3211 58.3153 35.2383 58.1998 35.1777C50.036 30.9132 40.6661 31.1651 40 31.1831C39.3339 31.2011 29.964 30.9132 21.8002 35.1777C21.6847 35.2383 21.5824 35.3211 21.499 35.4214C21.4156 35.5216 21.3529 35.6374 21.3145 35.762C21.276 35.8865 21.2625 36.0174 21.2748 36.1472C21.2871 36.277 21.3249 36.4031 21.3861 36.5182C21.5088 36.7512 21.7185 36.9262 21.9697 37.0054C22.2208 37.0846 22.4931 37.0615 22.7273 36.9411C29.1989 33.5673 36.3996 33.1894 39.0009 33.1714V38.7404C36.1836 38.7404 28.0918 39.1453 20.8911 42.726C20.6524 42.8454 20.4708 43.0546 20.3864 43.3076C20.302 43.5607 20.3217 43.837 20.441 44.0756C20.5604 44.3142 20.7697 44.4956 21.0229 44.58C21.2761 44.6644 21.5525 44.6447 21.7912 44.5254C28.6409 41.1246 36.3546 40.7557 39.0189 40.7377V46.3158C36.3186 46.3158 28.8839 46.7656 22.2502 50.3194C22.0115 50.4387 21.83 50.6479 21.7456 50.901C21.6612 51.1541 21.6808 51.4303 21.8002 51.6689C21.9195 51.9075 22.1288 52.089 22.382 52.1733C22.6352 52.2577 22.9116 52.2381 23.1503 52.1188C29.4509 48.7629 36.4626 48.3761 38.9829 48.3491V53.9181C33.9824 54.0016 29.0912 55.3944 24.7975 57.9577C24.6838 58.0262 24.5849 58.1166 24.5066 58.2237C24.4283 58.3308 24.3722 58.4525 24.3414 58.5815C24.3106 58.7106 24.3059 58.8445 24.3275 58.9753C24.3491 59.1062 24.3965 59.2315 24.4671 59.3439C24.5376 59.4562 24.6299 59.5534 24.7384 59.6298C24.847 59.7061 24.9696 59.76 25.0993 59.7885C25.2289 59.8169 25.3629 59.8192 25.4935 59.7953C25.624 59.7713 25.7485 59.7217 25.8596 59.6491C29.8285 57.2475 34.3622 55.9377 39.0009 55.8525V65.4431H34.0234C33.4493 65.4433 32.884 65.5847 32.3773 65.8547C31.8707 66.1247 31.4383 66.5151 31.1182 66.9915C30.7981 67.468 30.6001 68.0157 30.5416 68.5866C30.4832 69.1576 30.5661 69.7341 30.7831 70.2654C31.3888 71.9082 32.5728 73.274 34.1134 74.1071C37.0837 75.6905 42.9163 75.6905 45.8866 74.1071C47.4272 73.274 48.6112 71.9082 49.2169 70.2654C49.4339 69.7341 49.5168 69.1576 49.4584 68.5866C49.3999 68.0157 49.2019 67.468 48.8818 66.9915C48.5617 66.5151 48.1293 66.1247 47.6226 65.8547C47.116 65.5847 46.5507 65.4433 45.9766 65.4431H40.9991V55.8525C45.6259 55.9218 50.1526 57.2097 54.1224 59.5861C54.3467 59.7213 54.615 59.763 54.8698 59.7023C55.1245 59.6417 55.3452 59.4835 55.4844 59.2618C55.6236 59.0401 55.6702 58.7726 55.6141 58.517C55.558 58.2613 55.4038 58.0379 55.1845 57.8947C50.8908 55.3315 45.9996 53.9386 40.9991 53.8551V48.2861C43.5193 48.2861 50.5671 48.7 56.8317 52.0558C57.0704 52.1751 57.3468 52.1947 57.6 52.1104C57.8532 52.026 58.0625 51.8446 58.1818 51.6059C58.3012 51.3673 58.3208 51.0911 58.2364 50.838C58.152 50.5849 57.9705 50.3757 57.7318 50.2564C51.1341 46.7476 43.6904 46.3158 40.9991 46.3158V40.7287C43.6994 40.7287 51.3771 41.1156 58.2268 44.5164C58.4655 44.6357 58.7419 44.6554 58.9951 44.571C59.2483 44.4866 59.4576 44.3052 59.577 44.0666C59.6963 43.828 59.716 43.5517 59.6316 43.2986C59.5472 43.0456 59.3656 42.8364 59.1269 42.7171H59.1089ZM68.1098 51.7139C68.1234 51.6244 68.1234 51.5335 68.1098 51.444L62.4482 31.0211C62.3754 30.7687 62.2058 30.5551 61.9764 30.4267C61.747 30.2983 61.4762 30.2654 61.2228 30.3353C60.9693 30.4051 60.7536 30.572 60.6224 30.7998C60.4913 31.0275 60.4552 31.2978 60.5221 31.552L66.1026 51.8219V75.2137C66.1263 75.4633 66.2423 75.6952 66.4278 75.8639C66.6134 76.0327 66.8553 76.1262 67.1062 76.1262C67.3571 76.1262 67.599 76.0327 67.7846 75.8639C67.9702 75.6952 68.0861 75.4633 68.1098 75.2137V51.7139ZM40 22.924C42.2695 22.924 44.488 22.2508 46.3745 20.9898C48.2611 19.7287 49.7308 17.9365 50.5977 15.84C51.4645 13.7434 51.6895 11.437 51.2441 9.2126C50.7987 6.98822 49.703 4.94596 48.0957 3.34441C46.4884 1.74286 44.4418 0.654065 42.215 0.215874C39.9882 -0.222317 37.6814 0.00980937 35.5867 0.882861C33.492 1.75591 31.7036 3.23062 30.4479 5.12027C29.1922 7.00991 28.5257 9.22949 28.5329 11.498C28.5424 14.5316 29.7547 17.4378 31.9042 19.5796C34.0537 21.7213 36.965 22.924 40 22.924Z" fill="url(#paint0_linear_26_60)"/>
<defs>
<linearGradient id="paint0_linear_26_60" x1="40" y1="0" x2="40" y2="115" gradientUnits="userSpaceOnUse">
<stop stop-color="#00FFFF"/>
<stop offset="1" stop-color="#00248F"/>
</linearGradient>
</defs>
</svg>
